<?xml version="1.0" encoding="UTF-8" standalone="no"?>
<!-- Created with Inkscape (http://www.inkscape.org/) -->

<svg
   width="48"
   height="48"
   viewBox="0 0 12.7 12.7"
   version="1.1"
   id="svg5"
   inkscape:version="1.1.2 (0a00cf5339, 2022-02-04)"
   sodipodi:docname="icon.svg"
   xmlns:inkscape="http://www.inkscape.org/namespaces/inkscape"
   xmlns:sodipodi="http://sodipodi.sourceforge.net/DTD/sodipodi-0.dtd"
   xmlns="http://www.w3.org/2000/svg"
   xmlns:svg="http://www.w3.org/2000/svg">
  <sodipodi:namedview
     id="namedview7"
     pagecolor="#505050"
     bordercolor="#eeeeee"
     borderopacity="1"
     inkscape:pageshadow="0"
     inkscape:pageopacity="0"
     inkscape:pagecheckerboard="0"
     inkscape:document-units="mm"
     showgrid="false"
     inkscape:zoom="11.470044"
     inkscape:cx="53.18201"
     inkscape:cy="31.865614"
     inkscape:window-width="2490"
     inkscape:window-height="1016"
     inkscape:window-x="70"
     inkscape:window-y="27"
     inkscape:window-maximized="1"
     inkscape:current-layer="layer1"
     units="px" />
  <defs
     id="defs2" />
  <g
     inkscape:label="Layer 1"
     inkscape:groupmode="layer"
     id="layer1">
    <rect
       style="fill:#ffffff;stroke-width:0.00141029"
       id="rect185"
       width="8.2549105"
       height="7.2418094"
       x="2.2221744"
       y="2.4245143" />
    <g
       id="g21"
       transform="matrix(0.0799533,0,0,0.0799533,1.0618519,-8.0506741)">
      <path
         style="fill:#b6e1ee;stroke-width:0.264583"
         d="m 53.892963,258.13478 c -21.411575,-0.48257 -38.914124,-2.39565 -51.7260391,-5.65381 -11.0976696,-2.82221 -16.1717879,-6.21087 -14.9152869,-9.96089 0.415497,-1.24005 1.121463,-1.97894 3.1413291,-3.28782 1.3858531,-0.89804 6.8714485,-3.30865 7.5291841,-3.30865 0.0884,0 0.5676688,-0.17002 1.0650378,-0.37784 l 0.90431141,-0.37785 -0.52111272,-1.80496 c -0.28660989,-0.99273 -1.20339109,-4.48388 -2.03728629,-7.7581 l -1.5161762,-5.95312 v -50.53541 c 0,-56.94276 -0.1953551,-51.68963 2.0958121,-56.35663 2.61649887,-5.32968 7.1934252,-9.25443 12.8531457,-11.02167 l 1.984375,-0.61962 h 53.578122 c 51.672161,0 53.629891,0.0176 55.033331,0.49555 3.96609,1.35059 5.97438,2.51264 8.62073,4.98817 2.93808,2.74842 4.9085,5.9383 6.09784,9.87166 0.45101,1.49158 0.48186,4.26462 0.56347,50.65816 0.06,34.11594 -8e-4,49.7463 -0.19962,51.26487 -0.15728,1.20157 -1.09863,5.41137 -2.0919,9.35513 l -1.80594,7.17045 0.88151,0.36832 c 0.48482,0.20257 0.97544,0.36831 1.09025,0.36831 0.44067,0 4.87777,1.84368 6.43637,2.6744 8.84419,4.71391 4.85195,10.3761 -9.93542,14.09139 -17.31476,4.35029 -45.352599,6.42605 -77.126037,5.70996 z m 64.151947,-28.00462 c 5.18433,-1.26149 9.5515,-5.1163 11.35986,-10.02715 l 0.5559,-1.5096 V 168.71945 118.8455 l -0.75808,-1.5875 c -0.89331,-1.87069 -1.14018,-1.63704 -0.57262,0.54196 0.35612,1.36726 0.40466,7.44594 0.40466,50.68263 0,49.06211 -8e-4,49.13151 -0.5524,50.94284 -0.30382,0.9976 -0.86104,2.34785 -1.23827,3.00056 -1.57244,2.72075 -4.96001,5.44799 -8.2635,6.65273 l -1.71979,0.62719 H 66.196087 15.131507 l -1.752439,-0.70314 c -3.4639777,-1.38987 -5.7895169,-3.31614 -8.095006,-6.7052 -1.2669678,-1.86243 -1.4183544,-2.00544 -1.2604008,-1.19062 0.3984545,2.05543 2.9660901,5.27283 5.5308867,6.93054 1.5807421,1.02168 5.0208651,2.23288 6.7675841,2.38273 0.509322,0.0437 23.30979,0.0682 50.667705,0.0545 37.894573,-0.019 50.054483,-0.10107 51.055073,-0.34454 z M 63.630706,211.355 c 0.276185,-0.17517 0.28353,-0.4631 0.03681,-1.44291 -0.169524,-0.67324 -0.262295,-2.13361 -0.206161,-3.24526 0.0919,-1.81978 0.175384,-2.08426 0.83784,-2.65408 1.007605,-0.8667 2.515222,-0.86224 3.33453,0.01 0.556853,0.59274 0.600941,0.86302 0.566553,3.4733 -0.02051,1.5568 -0.150239,3.04159 -0.28829,3.29954 -0.360752,0.67407 0.08778,0.76535 2.532062,0.5153 6.613903,-0.67661 14.313013,-3.92227 18.694994,-7.88113 l 1.033092,-0.93333 -2.126067,-2.13791 c -2.526905,-2.54098 -2.821559,-3.3198 -1.741572,-4.60328 0.589436,-0.70051 0.89539,-0.84191 1.821625,-0.84191 1.026498,0 1.287425,0.16356 3.349918,2.0999 l 2.236711,2.09991 0.717666,-0.68468 c 0.920713,-0.87839 4.054269,-5.56601 5.041802,-7.54223 1.345041,-2.69167 2.657581,-7.3472 2.967321,-10.52499 0.0922,-0.94588 0.21977,-1.97685 0.28349,-2.29104 0.1119,-0.55177 0.0218,-0.57434 -2.64063,-0.66146 -2.487193,-0.0814 -2.823124,-0.15287 -3.438587,-0.73164 -0.461076,-0.43358 -0.682104,-0.91954 -0.682104,-1.49971 0,-1.95516 0.589658,-2.31342 4.096771,-2.48906 l 2.64155,-0.13229 -0.0842,-1.19063 c -0.23037,-3.2566 -1.87879,-9.01147 -3.486197,-12.17083 -1.47691,-2.90286 -4.885277,-7.67291 -5.482569,-7.67291 -0.11779,0 -0.984631,0.78282 -1.926312,1.7396 -1.85711,1.88689 -2.780374,2.49373 -3.794035,2.49373 -1.011137,0 -1.47616,-0.26412 -1.896649,-1.07726 -0.71459,-1.38187 -0.514827,-1.82665 1.91826,-4.27106 2.019313,-2.02871 2.253041,-2.35765 1.883744,-2.65107 -2.795154,-2.22087 -3.863986,-2.9662 -5.780527,-4.03095 -2.379964,-1.3222 -5.187905,-2.52114 -7.801273,-3.33102 -1.70406,-0.52808 -6.106927,-1.30451 -7.408333,-1.30644 l -0.79375,-0.001 0.09235,3.42551 c 0.09103,3.37649 0.08268,3.43518 -0.583285,4.10115 -1.518142,1.51814 -3.664169,0.54036 -4.019856,-1.83154 -0.190008,-1.26706 -0.03212,-4.01019 0.293518,-5.09959 0.16416,-0.54919 0.09428,-0.59532 -0.901862,-0.59532 -0.593897,0 -2.28056,0.23277 -3.748145,0.51726 -5.452875,1.05704 -9.425299,2.70777 -14.176843,5.89117 -3.519723,2.3581 -3.49427,2.19788 -0.788397,4.96305 2.581304,2.63788 2.780136,3.23932 1.495581,4.52387 -0.562999,0.563 -1.027756,0.7734 -1.708383,0.7734 -0.793578,0 -1.280035,-0.31012 -3.216431,-2.05052 -1.254794,-1.12779 -2.379408,-2.08634 -2.49914,-2.13011 -0.205632,-0.0752 -2.06693,2.1976 -3.384,4.13211 -2.614337,3.83993 -4.847023,10.13818 -5.471945,15.43596 l -0.176562,1.49681 2.817934,0.0907 c 2.586294,0.0832 2.859471,0.14203 3.323262,0.71531 0.58238,0.71986 0.659686,2.32506 0.144624,3.003 -0.555305,0.7309 -1.645232,1.00258 -4.022143,1.00258 -2.605773,0 -2.456362,-0.30003 -1.844588,3.70417 0.931016,6.0937 3.512471,11.85927 7.374356,16.47031 0.578919,0.69123 1.189183,1.25677 1.356137,1.25677 0.166955,0 0.713865,-0.43124 1.215353,-0.95833 2.961516,-3.11264 4.845532,-3.78223 6.179947,-2.19637 1.218123,1.44766 0.88024,2.24806 -2.159294,5.11506 -0.909505,0.85788 -1.653645,1.66181 -1.653645,1.78652 0,0.49447 4.755049,3.70245 7.52022,5.07349 3.972697,1.96976 6.682702,2.75102 12.852695,3.70527 0.363802,0.0563 0.72099,0.11669 0.79375,0.13428 0.07276,0.0176 0.287557,-0.0665 0.477327,-0.18686 z M 52.248914,192.91481 c -0.481791,-0.2615 -0.824011,-0.75853 -1.04021,-1.51076 -0.179885,-0.62589 -0.71002,-1.48742 -1.200221,-1.95049 -0.751123,-0.70956 -0.87802,-1.00843 -0.87802,-2.06792 0,-0.68116 0.11597,-1.45517 0.25771,-1.72001 0.214489,-0.40078 7.969167,-7.41692 8.844478,-8.00215 0.159927,-0.10693 0.243594,-0.96192 0.199596,-2.03965 -0.117771,-2.88467 1.11057,-5.12605 3.728945,-6.80426 l 0.992187,-0.63592 v -6.75206 c 0,-7.67645 0.123939,-8.33428 1.693815,-8.99021 1.22075,-0.51006 2.391196,-0.24646 3.206157,0.72206 l 0.656278,0.77995 v 6.98072 c 0,5.26328 0.08137,7.04758 0.330729,7.25243 0.181901,0.14944 0.86396,0.66426 1.515684,1.14405 0.651724,0.47979 1.544693,1.45472 1.984375,2.16651 0.735693,1.19099 0.79942,1.48556 0.79942,3.69503 0,2.14118 -0.0785,2.53439 -0.725739,3.63542 -0.999373,1.70004 -2.664343,3.05005 -4.417874,3.58216 -1.066779,0.32371 -1.910961,0.85015 -3.072226,1.91586 -5.327919,4.88954 -9.202834,8.23209 -10.089162,8.70305 -0.776827,0.41277 -1.912083,0.37047 -2.785922,-0.10381 z M 19.761715,119.76323 c 0,-0.62404 -0.699704,-0.98532 -1.11125,-0.57378 -0.411546,0.41155 -0.05027,1.11125 0.57378,1.11125 0.363847,0 0.53747,-0.17362 0.53747,-0.53747 z m 12.121202,-0.0617 c 0.105301,-0.54678 -0.658498,-0.91522 -1.06162,-0.5121 -0.403121,0.40313 -0.03468,1.16692 0.512099,1.06162 0.253431,-0.0488 0.500716,-0.29609 0.549521,-0.54952 z m 15.660046,0.0617 c 0,-0.62404 -0.699703,-0.98532 -1.11125,-0.57378 -0.411546,0.41155 -0.05027,1.11125 0.573781,1.11125 0.363847,0 0.537469,-0.17362 0.537469,-0.53747 z M 2.9317919,114.37299 c 1.2369668,-2.11072 3.2022255,-3.98403 5.643856,-5.37978 3.3545191,-1.91761 3.2914531,-1.89204 5.4101411,-2.19371 2.785867,-0.39668 103.613501,-0.41604 105.315241,-0.0202 1.85502,0.43147 3.84834,1.39606 5.6551,2.73658 2.4978,1.85323 3.04626,1.97335 1.29421,0.28345 -0.87651,-0.84543 -2.36479,-1.92196 -3.30729,-2.3923 -3.60679,-1.7999 0.52897,-1.6781 -56.746963,-1.67125 -57.1313145,0.007 -53.10777,-0.10993 -56.7531218,1.64688 -2.1824129,1.05177 -5.3287345,4.16833 -6.5640132,6.50193 -1.0028316,1.89447 -0.9667292,2.22819 0.05284,0.48843 z"
         id="path35" />
      <path
         style="fill:#b1daec;stroke-width:0.264583"
         d="m 56.538796,257.59887 c -13.267422,-0.27548 -26.197857,-1.0665 -34.403062,-2.10461 -6.934666,-0.87736 -18.2431924,-2.97985 -18.2530693,-3.39362 -0.00212,-0.0934 -0.1122177,-0.34067 -0.2444194,-0.5496 -0.185928,-0.29383 -0.3245485,-0.30999 -0.6120633,-0.0714 -0.5267906,0.4372 -3.37303247,-0.0875 -5.2248829,-0.96322 -0.8003645,-0.37847 -1.5345832,-0.6913 -1.631598,-0.69517 -0.097012,-0.004 -0.265684,-0.0963 -0.3748246,-0.20547 -0.1091406,-0.10914 -0.5235522,-0.19844 -0.9209114,-0.19844 -0.9322487,0 -4.1673407,-1.66513 -5.5734481,-2.8687 -3.210107,-2.74774 -1.962483,-5.45129 3.7855316,-8.20308 1.5152608,-0.72542 3.682849,-1.58853 4.8168611,-1.91803 2.47721425,-0.71979 2.4781641,0.33059 -0.00823,-9.10289 l -1.8131737,-6.87917 -0.069482,-50.79513 c -0.06794,-49.66929 -0.058005,-50.84052 0.4482729,-52.84257 2.1041862,-8.32093 9.3543195,-14.69229 17.7208731,-15.57298 3.022568,-0.31816 101.63746,-0.31923 104.40325,-0.001 6.68752,0.76916 12.82601,5.22221 15.88901,11.52641 2.1187,4.36064 1.96124,-0.12501 1.96562,55.99832 l 0.004,50.17742 -1.98377,7.89854 c -1.09107,4.3442 -1.98404,8.02284 -1.98437,8.17474 -2.7e-4,0.15191 1.04119,0.60699 2.31449,1.01129 3.49446,1.10955 7.54736,3.19036 9.0335,4.63791 1.62997,1.58764 1.90074,2.71201 1.06758,4.43309 -2.5103,5.18559 -17.9788,9.15706 -44.69535,11.47532 -4.923911,0.42726 -32.413652,1.46303 -33.73437,1.27106 -0.145521,-0.0211 -4.610365,-0.12869 -9.921875,-0.23898 z M 107.2065,232.40555 c 10.00737,-0.0749 10.37065,-0.0957 12.03854,-0.68857 1.81841,-0.64642 3.0749,-1.22978 3.66368,-1.70095 0.29121,-0.23305 0.2698,-0.31557 -0.11712,-0.45129 -0.39163,-0.13738 -0.31911,-0.24312 0.41943,-0.61155 0.63369,-0.31612 0.94613,-0.35934 1.07623,-0.14885 0.12147,0.19655 0.23964,0.20545 0.35032,0.0264 0.0918,-0.14863 0.0174,-0.32588 -0.16537,-0.39388 -0.20385,-0.0758 0.26121,-0.7214 1.20264,-1.66944 1.87481,-1.88798 3.19948,-3.84329 3.96946,-5.85922 l 0.58094,-1.521 v -50.8 -50.8 l -0.85989,-1.81564 c -0.90898,-1.91927 -1.0526,-2.40769 -0.51643,-1.75623 0.17965,0.21828 0.59859,0.62912 0.93098,0.91299 l 0.60434,0.51611 -0.56068,-1.30801 c -0.86877,-2.02677 -1.47344,-2.87336 -3.18223,-4.4554 -1.8387,-1.70231 -4.22283,-3.09538 -6.47026,-3.78062 -1.51527,-0.46201 -3.97077,-0.48403 -53.974993,-0.48403 H 13.80859 l -2.260645,0.8096 c -4.8998554,1.75479 -8.2902102,5.14293 -10.088374,10.08181 l -0.56214962,1.54401 -0.0368009,49.34478 c -0.0202406,27.13964 0.057404,49.94011 0.17254542,50.66771 0.2864564,1.81017 0.741664,2.87918 1.0813652,2.53948 0.181065,-0.18107 0.1798585,-0.37909 -0.0037,-0.61004 -0.8531356,-1.07328 -0.9552595,-2.46359 -0.8989033,-12.2376 0.036706,-6.36566 0.1534663,-9.89596 0.3345101,-10.11411 0.3151531,-0.37973 0.4075403,-46.65734 0.0963,-48.2371 -0.2699808,-1.37034 -0.584536,-28.51459 -0.3460565,-29.86275 0.2706502,-1.53004 1.83361,-4.55646 3.2062313,-6.20836 2.0844773,-2.5086 2.5298134,-2.88987 3.221077,-2.75773 0.3545522,0.0678 0.5900261,0.0349 0.5232717,-0.0731 -0.1876345,-0.3036 0.6155505,-0.8617 1.017905,-0.7073 0.1969505,0.0756 0.5258884,0.0181 0.7309723,-0.12765 0.2921003,-0.20764 0.2695943,-0.23165 -0.1038808,-0.11084 -0.2865887,0.0927 -0.410583,0.0471 -0.310851,-0.11423 0.091252,-0.14765 0.4248571,-0.24025 0.7413471,-0.20578 0.316489,0.0345 1.289809,-0.17079 2.162934,-0.45613 1.555337,-0.50828 2.654853,-0.51879 54.272042,-0.51879 42.03893,0 52.6589,-0.0668 52.55762,-0.33073 -0.19134,-0.49861 0.7718,-0.40456 2.22287,0.21705 1.48183,0.63479 4.05683,2.50451 4.05683,2.94569 0,0.16573 0.20836,0.53952 0.46302,0.83066 0.25467,0.29113 0.32987,0.452 0.16713,0.35748 -0.16274,-0.0945 0.22498,0.86728 0.8616,2.13733 2.10679,4.20303 1.94802,-0.17171 1.9463,53.6278 -7.9e-4,27.58504 -0.10413,48.78649 -0.24165,49.61993 -0.75356,4.56685 -3.8586,8.55191 -8.30301,10.65624 -3.07187,1.45446 -0.23763,1.3823 -54.292349,1.3823 h -50.27083 l -1.938756,-0.63509 c -4.6591245,-1.52623 -8.3898155,-5.27235 -10.0237762,-10.06524 -0.3253343,-0.9543 -0.5945875,-2.06251 -0.5983446,-2.46269 -0.00712,-0.75726 -0.1700848,-0.86774 -0.7433971,-0.50397 -0.3656251,0.232 -0.5401231,3.44234 -0.215646,3.96735 0.1006131,0.1628 0.053573,0.5377 -0.1045342,0.83313 -0.242779,0.45364 -0.1930559,0.57303 0.3198838,0.76805 0.3340418,0.127 1.0200561,0.87001 1.5244762,1.65114 1.6925395,2.62101 4.1636895,4.77274 7.3573271,6.40632 1.592154,0.81441 2.955335,1.42023 3.029291,1.34628 0.07396,-0.074 0.457832,0.0129 0.853056,0.19294 0.667578,0.30417 0.6852,0.35183 0.248206,0.67136 -0.258712,0.18918 -0.417862,0.36925 -0.353669,0.40017 0.596427,0.28727 59.72837,0.37082 91.927122,0.12989 z m 3.60228,-0.55465 c -0.97026,-0.53781 -0.269,-0.74534 1.82225,-0.53927 1.97989,0.19509 2.36529,0.47433 1.02469,0.74245 -1.24631,0.24926 -2.14662,0.18501 -2.84694,-0.20318 z m -94.100653,-0.17822 c -0.28248,-0.45706 0.05644,-0.58673 1.047594,-0.40079 1.331036,0.24971 1.448488,0.68297 0.185139,0.68297 -0.582083,0 -1.136811,-0.12698 -1.232733,-0.28218 z m 84.811523,-0.037 c -0.001,-0.10277 -0.86489,-0.22794 -1.919918,-0.27816 -1.055026,-0.0502 0.343958,-0.11315 3.108858,-0.13983 2.88654,-0.0279 5.19607,0.0607 5.42395,0.20796 0.35278,0.22798 0.35278,0.2618 0,0.30434 -1.17833,0.14211 -6.61145,0.0646 -6.61289,-0.0943 z m 14.28581,0.0546 c 0,-0.14552 0.17157,-0.26458 0.38126,-0.26458 0.20969,0 0.45484,0.11906 0.54478,0.26458 0.0899,0.14552 -0.0816,0.26458 -0.38126,0.26458 -0.29963,0 -0.54478,-0.11906 -0.54478,-0.26458 z M 45.433229,219.9099 c -3.799893,-2.30413 -5.319204,-3.40616 -8.60589,-6.24228 -3.420917,-2.95194 -6.776281,-6.89547 -9.428742,-11.0815 -3.102718,-4.89663 -4.998944,-9.63952 -6.852538,-17.13976 -0.176506,-0.71421 -0.388131,-1.06555 -0.57299,-0.95131 -0.17054,0.1054 -0.218892,0.0611 -0.115628,-0.10602 0.09762,-0.15795 0.05648,-0.36197 -0.09141,-0.45337 -0.147894,-0.0914 -0.268899,-0.56907 -0.268899,-1.06149 0,-0.49242 -0.255092,-1.32766 -0.566872,-1.85608 -0.5246,-0.88913 -0.545923,-1.11009 -0.285933,-2.96288 0.154517,-1.10116 0.421902,-2.08922 0.594191,-2.1957 0.232881,-0.14393 0.238358,-0.33353 0.02135,-0.73902 -0.160549,-0.29998 -0.291904,-1.14856 -0.291904,-1.88573 0,-1.15356 0.07206,-1.34031 0.517178,-1.34031 0.37973,0 0.552627,-0.22853 0.650571,-0.85989 0.07337,-0.47295 0.260278,-1.69334 0.415359,-2.71198 0.155082,-1.01865 0.351305,-2.19441 0.436054,-2.61279 0.105257,-0.51963 0.06127,-0.70335 -0.138787,-0.5797 -0.161081,0.0995 -0.292875,0.48156 -0.292875,0.8489 0,0.44015 -0.112776,0.61532 -0.330729,0.51372 -0.181902,-0.0848 -0.539089,-0.22766 -0.79375,-0.31749 -0.355465,-0.12538 -0.463021,-0.46345 -0.463021,-1.45538 v -1.29206 h 0.950812 c 0.756642,0 0.981847,0.11868 1.102783,0.58115 0.145055,0.55469 0.161147,0.5577 0.35351,0.0661 0.318698,-0.81439 0.269811,-1.17177 -0.138843,-1.01496 -0.276315,0.10604 -0.338704,-0.004 -0.232646,-0.4093 0.13716,-0.5245 0.66593,-1.0951 0.585441,-0.63175 -0.17727,1.02047 0.210712,0.32397 1.057582,-1.89857 5.243301,-13.76054 15.417141,-23.64241 28.79165,-27.96537 1.487567,-0.48081 2.707958,-0.96572 2.711979,-1.07757 0.004,-0.11185 -8.912822,-0.17138 -19.815211,-0.13229 l -19.822521,0.0711 -0.718624,0.66146 c -0.395243,0.3638 -0.953614,1.18435 -1.240822,1.82344 -0.512771,1.141 -0.52196,1.89729 -0.509032,41.88674 0.01458,45.0681 -0.10006,42.10393 1.708592,44.18151 0.467349,0.53684 1.445037,1.27792 2.172642,1.64684 l 1.322916,0.67077 15.734103,0.007 15.734104,0.007 z M 19.232548,170.30695 c 0,-0.14552 0.119063,-0.26458 0.264583,-0.26458 0.145521,0 0.264584,0.11906 0.264584,0.26458 0,0.14552 -0.119063,0.26458 -0.264584,0.26458 -0.14552,0 -0.264583,-0.11906 -0.264583,-0.26458 z m 2.402139,-9.67934 c 0.0127,-0.30822 0.07539,-0.37092 0.15985,-0.15985 0.07643,0.19099 0.06703,0.4192 -0.02087,0.50712 -0.08792,0.0879 -0.150453,-0.0684 -0.138965,-0.34727 z m 1.831194,-6.07898 c 0,-0.22687 0.121005,-0.33771 0.268899,-0.2463 0.147894,0.0914 0.200401,0.27702 0.116676,0.41249 -0.226809,0.36699 -0.385575,0.29856 -0.385575,-0.16619 z m 0.705557,-0.55765 c -0.09701,-0.097 -0.17639,-0.29942 -0.17639,-0.44979 0,-0.16579 0.123235,-0.15017 0.313089,0.0397 0.172202,0.17221 0.251577,0.37461 0.17639,0.4498 -0.07519,0.0752 -0.216077,0.0573 -0.313089,-0.0397 z m 1.42958,-2.26926 c 0.135361,-0.47198 0.246113,-0.89573 0.246113,-0.94166 0,-0.0459 0.118626,-0.0102 0.263612,0.0794 0.165979,0.10258 0.114462,0.45135 -0.139086,0.94165 -0.527669,1.02041 -0.676894,0.98843 -0.370639,-0.0794 z m 92.158122,69.87009 c 1.25721,-0.3566 3.61309,-2.04547 4.2994,-3.08214 0.25853,-0.39051 0.74276,-1.48392 1.07608,-2.4298 l 0.60603,-1.7198 0.001,-17.94113 c 8.6e-4,-11.89367 -0.0879,-17.88602 -0.26333,-17.77761 -0.16662,0.10297 -0.26459,-0.51172 -0.26459,-1.66008 0,-1.00298 -0.0697,-1.89327 -0.15482,-1.97842 -0.0851,-0.0852 -0.17445,-1.1766 -0.19844,-2.42544 -0.0385,-2.00276 0.011,-2.27061 0.41941,-2.27053 0.40804,8e-5 0.45938,-0.27482 0.43233,-2.31501 -0.0169,-1.27331 -0.0851,-2.10675 -0.1517,-1.85209 -0.22089,0.8453 -0.61136,0.47891 -0.61136,-0.57367 0,-1.22541 0.22698,-1.92819 0.55689,-1.7243 0.13479,0.0833 0.23511,-1.31402 0.23281,-3.24266 -0.002,-1.95317 -0.0989,-3.23935 -0.22802,-3.03573 -0.77458,1.22197 -1.14411,-0.29341 -0.80755,-3.31169 0.15462,-1.38667 0.21741,-2.6873 0.13952,-2.89028 -0.21386,-0.55731 0.10102,-1.14825 0.52512,-0.98551 0.31852,0.12223 0.37498,-1.06906 0.37498,-7.91259 0,-7.92071 -0.0104,-8.07608 -0.61483,-9.21914 -0.33963,-0.64225 -1.0206,-1.40107 -1.52136,-1.69526 -0.88319,-0.5189 -1.4171,-0.53469 -20.75027,-0.61386 -10.91406,-0.0447 -20.617653,-0.002 -21.563538,0.0949 l -1.719792,0.17612 2.116667,0.61302 c 5.258755,1.52302 11.325984,4.70783 15.90142,8.34698 2.094519,1.6659 5.925373,5.68257 7.809703,8.18849 1.81767,2.41727 5.07871,7.82641 7.08704,11.75536 5.07019,9.91895 5.44601,21.97323 1.05074,33.70177 -3.646,9.72913 -9.98943,18.0025 -17.825987,23.24937 -2.129592,1.42584 -7.004852,4.31048 -7.285043,4.31048 -0.123393,0 -0.297936,0.11906 -0.387874,0.26459 -0.247734,0.40084 30.300324,0.35816 31.719304,-0.0443 z m 5.02927,-26.56569 c -0.094,-0.37446 -0.0509,-0.80083 0.0958,-0.94751 0.17918,-0.17917 0.30297,0.0442 0.37729,0.68084 0.12707,1.08845 -0.21801,1.28297 -0.47309,0.26667 z m 0.1608,-25.26395 c 0,-0.15411 0.11906,-0.20661 0.26458,-0.11668 0.14552,0.0899 0.26459,0.21603 0.26459,0.2802 0,0.0642 -0.11907,0.11668 -0.26459,0.11668 -0.14552,0 -0.26458,-0.12609 -0.26458,-0.2802 z m 0.20351,-25.63741 c -0.18288,-0.65117 -0.0735,-1.02806 0.21474,-0.73983 0.0845,0.0845 0.11185,0.43178 0.0607,0.7717 l -0.093,0.61803 z m -57.661845,70.18026 c -0.387866,-0.0594 -0.77108,-0.27972 -0.851591,-0.48953 -0.168158,-0.43821 0.597102,-0.48748 3.255553,-0.20962 1.035129,0.10819 1.515001,0.25369 1.295582,0.39283 -0.473699,0.30037 1.318697,0.28364 3.505092,-0.0327 5.3966,-0.78086 12.379266,-3.62083 16.916158,-6.88009 2.109814,-1.51567 6.24101,-5.30283 5.041791,-4.62192 -0.210214,0.11936 -1.163047,0.25639 -2.117405,0.30451 l -1.7352,0.0875 -2.448994,-2.31774 c -2.254308,-2.13349 -2.448811,-2.39757 -2.446655,-3.32195 0.0032,-1.35899 0.936294,-2.30308 2.276332,-2.30308 0.877144,0 1.237276,0.25755 3.583903,2.56307 1.434822,1.40969 2.60877,2.46667 2.60877,2.34885 0,-0.11782 0.196884,-0.0508 0.43752,0.1489 0.240639,0.19971 0.657358,0.32586 0.926042,0.28034 0.323651,-0.0548 0.491344,0.0791 0.496882,0.3969 0.0088,0.50165 -0.01633,0.52413 1.711367,-1.53544 0.925881,-1.10374 1.877632,-2.46741 2.060278,-2.95197 0.15203,-0.40334 0.10101,-0.42856 -0.363756,-0.17983 -0.297326,0.15912 -0.766665,0.81673 -1.042977,1.46133 -0.525243,1.22534 -0.883531,1.45922 -1.15434,0.7535 -0.295111,-0.76904 -0.165624,-1.13147 0.434713,-1.21673 0.389419,-0.0553 0.62547,-0.29743 0.682511,-0.70009 0.05703,-0.40254 0.216313,-0.56599 0.460325,-0.47236 0.239493,0.0919 0.431742,-0.0904 0.536795,-0.50894 0.176934,-0.70495 0.508509,-0.85112 0.729089,-0.32138 0.22166,0.53234 1.24878,-0.97037 2.47216,-3.61685 1.2167,-2.63204 1.32433,-3.06388 0.76356,-3.06388 -0.20615,0 -0.42674,-0.14883 -0.49019,-0.33073 -0.18654,-0.53479 0.0919,-0.99219 0.60397,-0.99219 0.35002,0 0.44688,0.15764 0.36579,0.59531 -0.0728,0.39284 0.0249,0.30539 0.28707,-0.25712 0.44267,-0.94962 1.31712,-4.7838 1.55553,-6.82048 0.14768,-1.26171 0.13664,-1.29232 -0.23879,-0.66146 l -0.39363,0.66146 0.0701,-0.79375 c 0.0386,-0.43656 0.20983,-0.76704 0.38054,-0.73438 1.11923,0.21407 0.50781,-10.79379 -0.67817,-12.20954 -0.23428,-0.27968 -0.27894,-0.42258 -0.0992,-0.31757 0.46223,0.27009 0.19256,-0.96789 -0.91511,-4.20101 -1.13641,-3.31702 -2.79709,-6.68149 -4.421696,-8.95817 -1.177793,-1.65053 -1.73681,-2.1262 -1.73681,-1.47787 0,0.15671 -0.258437,0.0986 -0.588039,-0.13229 -0.323419,-0.22653 -0.78509,-0.41188 -1.025935,-0.41188 -0.240845,0 -0.586118,-0.17859 -0.767276,-0.39687 -0.181157,-0.21828 -0.51199,-0.39688 -0.735184,-0.39688 -0.223195,0 -1.530051,1.1279 -2.904128,2.50645 -2.615197,2.62371 -3.630937,3.16094 -4.796755,2.53701 -0.773837,-0.41414 -1.399288,-1.72625 -1.20047,-2.51841 0.221991,-0.88448 5.015709,-5.42946 5.75496,-5.45635 0.315857,-0.0115 0.424717,-0.0812 0.241908,-0.15489 -0.182808,-0.0737 -0.252574,-0.26313 -0.155035,-0.42095 0.110577,-0.17892 0.02141,-0.22711 -0.236863,-0.12801 -0.273923,0.10512 -0.461812,-0.0231 -0.554762,-0.37853 -0.0773,-0.29561 -0.259403,-0.46402 -0.404662,-0.37425 -0.145261,0.0898 -0.339167,0.0418 -0.4309,-0.10664 -0.09173,-0.14843 -0.468935,-0.19404 -0.838221,-0.10135 -0.559925,0.14053 -0.654299,0.0858 -0.568254,-0.32976 0.06954,-0.3358 0.296667,-0.47721 0.696545,-0.43367 0.330403,0.036 0.660593,-0.1106 0.745066,-0.33073 0.08344,-0.21743 0.403582,-0.39533 0.711436,-0.39533 0.800057,0 -2.471611,-2.31973 -5.775722,-4.09519 -6.975366,-3.7482 -16.409174,-5.5529 -23.680207,-4.53004 -3.480107,0.48956 -7.482043,1.45622 -9.358249,2.26045 -1.04273,0.44697 -1.259064,0.65001 -1.147426,1.07691 0.08948,0.34217 0.03058,0.47286 -0.168479,0.37382 -0.16833,-0.0838 -0.106272,0.0122 0.137904,0.2133 0.306234,0.25217 0.367792,0.48398 0.198437,0.74723 -0.21269,0.33061 -0.280358,0.32857 -0.506052,-0.0152 -0.246193,-0.37504 -0.369742,-0.94716 -0.299966,-1.38907 0.05819,-0.36857 -0.385136,-0.20227 -2.82139,1.05834 -2.374228,1.22851 -4.643575,2.7064 -6.19851,4.03673 l -0.775287,0.66331 1.334344,0.005 c 1.30915,0.005 1.33323,-0.009 1.275241,-0.75856 -0.04515,-0.58315 0.08469,-0.81831 0.549616,-0.99544 0.390446,-0.14875 0.550879,-0.13831 0.447406,0.0291 -0.14681,0.23755 0.211793,0.37717 0.741137,0.28858 0.115374,-0.0193 0.07373,0.21908 -0.09254,0.52976 -0.210937,0.39414 -0.21436,0.51052 -0.01132,0.38504 0.478438,-0.29569 0.330816,0.0473 -0.304332,0.70716 -1.138129,1.18235 -2.791867,2.31939 -3.411511,2.34561 -0.579014,0.0245 -0.584734,0.0386 -0.08039,0.19843 0.76563,0.24261 4.702907,4.09721 5.280363,5.16948 0.466381,0.86602 0.465566,0.91717 -0.02811,1.76247 -0.571958,0.97933 -1.635625,1.44838 -2.68641,1.18465 -0.387699,-0.0973 -1.820245,-1.26979 -3.183434,-2.60552 -2.196812,-2.15256 -2.51387,-2.37701 -2.789465,-1.97475 -1.441918,2.10461 -1.849731,2.58887 -2.180185,2.58887 -0.208844,0 -0.379717,0.16586 -0.379717,0.36857 0,0.20271 -0.178594,0.4371 -0.396875,0.52086 -0.218281,0.0838 -0.399523,0.30486 -0.402759,0.49133 -0.0032,0.18647 -0.238713,0.63669 -0.523283,1.00049 -0.28457,0.3638 -0.520046,0.85524 -0.523282,1.09209 -0.01138,0.83342 -0.633846,1.03826 -1.473382,0.48485 -0.429803,-0.28331 -0.85601,-0.5159 -0.947124,-0.51686 -0.379198,-0.004 -2.096569,3.77541 -2.958221,6.51013 -1.419977,4.50674 -1.870324,8.02801 -1.700139,13.29341 0.12065,3.73291 0.263298,4.87326 0.936014,7.48269 0.81063,3.14439 2.89247,8.45921 3.739335,9.5463 0.2589,0.33235 0.682416,1.02098 0.941144,1.53031 0.787934,1.5511 3.035469,4.21999 3.427171,4.06968 0.19712,-0.0756 0.965452,0.29859 1.707402,0.83163 l 1.348999,0.96916 0.03021,-0.88472 c 0.02577,-0.75449 0.370652,-1.20385 2.343115,-3.05291 1.272098,-1.19251 2.644439,-2.25141 3.049651,-2.35312 1.058209,-0.26559 2.013363,0.16021 2.595573,1.15709 0.438332,0.75053 0.461317,0.9738 0.172132,1.67196 -0.462446,1.11644 -4.835836,4.99956 -5.63079,4.99956 -0.366062,0 -0.619617,0.15764 -0.619617,0.38524 0,0.21188 0.11253,0.31569 0.250068,0.23068 0.331898,-0.20512 0.71097,0.42374 0.716021,1.18785 0.0034,0.51218 -0.09194,0.58267 -0.578922,0.42811 -0.505095,-0.16031 -0.531603,-0.13541 -0.198437,0.18639 2.280517,2.2027 8.444925,5.68068 12.290784,6.93451 2.892605,0.94305 6.506839,1.77825 8.731249,2.01768 1.90804,0.20538 5.579851,0.27662 4.321871,0.0839 z m 6.12917,-0.87099 c 0.518153,-0.33485 0.868411,-0.33485 0.661459,0 -0.08994,0.14552 -0.364855,0.26276 -0.610928,0.26053 -0.38557,-0.003 -0.392555,-0.0395 -0.05053,-0.26053 z m 1.537891,-0.18074 c 0.190995,-0.0764 0.419201,-0.067 0.507119,0.0209 0.08792,0.0879 -0.06835,0.15045 -0.347266,0.13896 -0.308226,-0.0127 -0.370919,-0.0754 -0.159853,-0.15985 z m 1.692823,-0.49078 c -0.281872,-0.31959 -0.270378,-0.38681 0.06615,-0.38681 0.224021,0 0.407308,0.17859 0.407308,0.39687 0,0.48252 -0.03975,0.48167 -0.473453,-0.0101 z m -2.422808,-0.36036 c -0.299384,-0.55941 0.09389,-0.83711 1.131964,-0.79931 0.490918,0.0179 0.466177,0.0601 -0.171527,0.29249 -0.471778,0.17196 -0.693253,0.40699 -0.603618,0.64057 0.208672,0.54379 -0.04513,0.44865 -0.356819,-0.13375 z m 4.339375,0.2577 c 0.08123,-0.13143 -0.0019,-0.28895 -0.184695,-0.35006 -0.182808,-0.0611 -0.01582,-0.17175 0.37107,-0.24588 0.497523,-0.0953 0.665806,-0.0367 0.574858,0.20035 -0.07073,0.18431 -0.304168,0.40248 -0.518755,0.48483 -0.214588,0.0823 -0.323702,0.0422 -0.242478,-0.0892 z m -11.804877,-0.87946 c -1.065244,-0.86195 -1.280067,-1.58714 -1.271489,-4.29221 0.0087,-2.75489 0.163216,-3.23183 1.230963,-3.80051 0.91949,-0.48973 1.907064,-0.36042 2.609106,0.34163 0.604441,0.60444 0.649433,0.83599 0.649433,3.3422 0,2.23603 -0.09027,2.83883 -0.532156,3.55383 -0.691325,1.11858 -1.888969,1.49986 -2.685857,0.85506 z m -21.211846,-4.87275 c -0.244472,-0.24447 -0.221705,-0.88194 0.0315,-0.88194 0.11434,0 0.207889,0.23812 0.207889,0.52917 0,0.59659 0.0019,0.59395 -0.239385,0.35277 z m -1.830035,-0.63855 c -0.254662,-0.14833 -0.463021,-0.40664 -0.463021,-0.57404 0,-0.22553 0.0806,-0.22376 0.311206,0.007 0.238548,0.23855 0.408416,0.23547 0.727604,-0.0132 0.358081,-0.279 0.3704,-0.26545 0.08797,0.0968 -0.180639,0.23167 -0.250092,0.49956 -0.154342,0.59531 0.249703,0.24971 0.02736,0.20096 -0.509413,-0.11168 z M 53.560138,192.245 c -0.255815,-0.14897 -0.588451,-0.19463 -0.739193,-0.10147 -0.419282,0.25913 -1.044649,-0.39482 -1.044649,-1.09239 0,-0.41961 -0.250893,-0.75201 -0.770387,-1.02065 -1.832141,-0.94744 -2.407353,-2.92807 -1.305033,-4.49363 0.313727,-0.44556 2.435886,-2.43593 4.715909,-4.42304 l 4.145494,-3.61292 -0.0024,-2.07562 c -0.0013,-1.30447 0.151027,-2.42682 0.410369,-3.02091 0.576551,-1.32073 1.962724,-2.82755 3.165776,-3.4413 l 1.017336,-0.51896 0.02484,-4.95556 c 0.01368,-2.72556 0.103147,-6.06735 0.198837,-7.4262 0.16025,-2.27568 0.232531,-2.52101 0.915939,-3.10886 0.795595,-0.68434 2.20354,-0.85002 3.108357,-0.36578 1.193504,0.63874 1.308261,1.40155 1.308261,8.69613 v 6.87816 l 1.389063,0.93009 c 3.900352,2.6116 4.493283,7.90242 1.259086,11.23504 -1.221828,1.25901 -1.979494,1.68053 -4.106849,2.28479 -1.176788,0.33426 -1.924106,0.76958 -2.906924,1.69332 -3.276862,3.07991 -7.786621,6.89773 -9.184963,7.77571 -0.826627,0.51902 -0.964977,0.53321 -1.598903,0.16405 z M 28.250236,177.08794 c -0.715913,-0.3214 -1.173613,-1.56982 -0.971167,-2.64895 0.280575,-1.4956 0.644644,-1.62805 4.231132,-1.53929 3.032786,0.0751 3.231663,0.11395 3.795784,0.74236 0.739113,0.82334 0.762508,1.93722 0.05945,2.83101 -0.511992,0.65089 -0.670951,0.68489 -3.568853,0.76329 -1.668145,0.0451 -3.264003,-0.0217 -3.54635,-0.14842 z m 71.854344,0.101 c -2.890826,-0.12466 -3.172227,-0.18343 -3.638023,-0.75974 -0.682919,-0.84494 -0.635399,-1.97221 0.120161,-2.8506 0.605012,-0.70337 0.727212,-0.73027 3.819432,-0.84051 l 3.19443,-0.1139 0.67848,0.7321 c 0.7372,0.79546 0.85682,1.7496 0.34385,2.74292 -0.56421,1.09257 -1.15401,1.23481 -4.51833,1.08973 z M 30.228028,162.76633 c 0.109003,-0.29105 0.269221,-1.03906 0.356041,-1.66225 0.08682,-0.6232 0.24715,-1.12921 0.356291,-1.12448 0.109141,0.005 0.306353,0.009 0.438251,0.009 0.348487,0 0.03262,0.9991 -0.706099,2.23344 -0.35347,0.59062 -0.55349,0.83573 -0.444484,0.54468 z m 35.042018,-15.65948 c -0.218281,-0.0828 -0.664766,-0.39431 -0.992188,-0.69219 -0.544631,-0.49551 -0.595312,-0.77636 -0.595312,-3.29894 0,-2.09759 0.10542,-2.93579 0.440603,-3.50321 0.890124,-1.50686 2.682255,-1.58753 3.552782,-0.15992 0.406696,0.66696 0.502743,1.33862 0.503542,3.52138 7.94e-4,2.4241 -0.05929,2.76469 -0.594323,3.36348 -0.618863,0.6926 -1.630976,1.02897 -2.315104,0.7694 z m -20.108333,-3.53112 c 0,-0.60205 0.404649,-0.69781 0.616445,-0.14588 0.07914,0.20623 -0.02718,0.44062 -0.236275,0.52086 -0.251164,0.0964 -0.38017,-0.0309 -0.38017,-0.37498 z m 1.252361,-0.28911 c 0.179477,-0.18082 0.392969,-0.26211 0.474432,-0.18065 0.08146,0.0815 -0.06538,0.2294 -0.326319,0.32876 -0.377084,0.14359 -0.407474,0.1132 -0.148113,-0.14811 z m 34.466388,-3.68695 c 0,-0.15411 0.119062,-0.20661 0.264583,-0.11668 0.145521,0.0899 0.264583,0.21603 0.264583,0.2802 0,0.0642 -0.119062,0.11668 -0.264583,0.11668 -0.145521,0 -0.264583,-0.12609 -0.264583,-0.2802 z m -23.910649,-0.91686 c -0.248055,-0.64642 -0.235836,-0.65488 0.693462,-0.47973 1.268847,0.23914 1.82965,0.60036 0.947682,0.61041 -0.388281,0.004 -0.878932,0.0744 -1.090337,0.15554 -0.215778,0.0828 -0.457375,-0.0427 -0.550807,-0.28622 z m 16.692474,-0.0239 c -0.08944,-0.0894 0.02347,-0.44663 0.250918,-0.79375 0.412369,-0.62936 0.410512,-0.63113 -0.659614,-0.63113 -1.06149,0 -1.629005,-0.33723 -1.108694,-0.6588 0.147894,-0.0914 0.268898,-0.0469 0.268898,0.0988 0,0.14574 0.506016,0.3016 1.12448,0.34634 0.618463,0.0448 1.084545,0.18712 1.035735,0.31637 -0.04881,0.12925 0.07025,0.33578 0.264583,0.45896 0.264237,0.1675 0.269936,0.225 0.0226,0.22803 -0.181902,0.002 -0.33073,0.18264 -0.33073,0.40092 0,0.39456 -0.557458,0.54497 -0.868174,0.23426 z m 4.192477,-0.17952 c 0.09936,-0.26094 0.247303,-0.40779 0.328766,-0.32632 0.08146,0.0815 1.69e-4,0.29495 -0.180653,0.47443 -0.261307,0.25936 -0.291698,0.22897 -0.148113,-0.14811 z m -22.771176,-0.7162 c 0.08994,-0.14552 0.275558,-0.26458 0.412491,-0.26458 0.136932,0 0.248967,0.11906 0.248967,0.26458 0,0.14552 -0.185621,0.26459 -0.41249,0.26459 -0.22687,0 -0.338905,-0.11907 -0.248968,-0.26459 z m 21.166666,0 c -0.510181,-0.21923 -0.508366,-0.22806 0.05053,-0.24598 0.318833,-0.0102 0.653282,0.10046 0.74322,0.24598 0.19341,0.31295 -0.06549,0.31295 -0.79375,0 z m -3.886068,-0.18074 c 0.190995,-0.0764 0.419201,-0.067 0.507119,0.0209 0.08792,0.0879 -0.06835,0.15045 -0.347266,0.13896 -0.308226,-0.0127 -0.370919,-0.0754 -0.159853,-0.15985 z m -52.073305,45.64498 c 0,-0.3153 -0.08282,-0.49045 -0.184046,-0.38922 -0.285965,0.28596 -0.326118,0.96248 -0.05713,0.96248 0.132647,0 0.241173,-0.25797 0.241173,-0.57326 z m 103.374629,-7.95647 c -0.0633,-0.32911 -0.11747,-0.12214 -0.12041,0.45994 -0.003,0.58208 0.0488,0.85136 0.11507,0.5984 0.0662,-0.25297 0.0686,-0.72922 0.005,-1.05834 z M 32.855983,155.42321 c 0.120856,0.10965 0.13289,0.0486 0.02674,-0.13568 -0.106148,-0.18427 -0.316585,-0.25866 -0.46764,-0.1653 -0.342194,0.21149 -0.05624,-0.81578 0.486756,-1.74861 l 0.385027,-0.66146 -0.54487,0.62462 c -0.299677,0.34355 -0.544869,0.76357 -0.544869,0.93339 0,0.16982 -0.243192,0.51699 -0.540425,0.77149 -0.719225,0.61582 -0.408445,1.09163 0.376904,0.57705 0.331452,-0.21718 0.701519,-0.30515 0.822373,-0.1955 z m 90.886977,-1.9173 c 0,-1.28108 -0.10439,-1.98437 -0.29454,-1.98437 -0.19872,0 -0.24385,0.4519 -0.13872,1.38906 0.0857,0.76398 0.15872,1.65695 0.16225,1.98437 0.004,0.32742 0.066,0.59531 0.13872,0.59531 0.0728,0 0.13229,-0.89296 0.13229,-1.98437 z m -28.826247,-5.76204 -0.618728,-0.58796 0.501134,0.70169 c 0.275624,0.38593 0.55405,0.65051 0.618725,0.58796 0.06468,-0.0625 -0.160832,-0.37831 -0.501131,-0.70169 z M 37.75338,125.88945 c 0,-0.42799 0.155853,-0.4791 1.127242,-0.36961 2.147969,0.24211 3.901773,-0.60516 2.983137,-1.44117 -0.124558,-0.11335 -0.140822,-0.0573 -0.03614,0.12464 0.131212,0.228 -0.01998,0.33073 -0.486746,0.33073 -0.821449,0 -0.867772,-0.28279 -0.122563,-0.74818 0.4714,-0.29439 0.629092,-0.2788 1.052094,0.10401 0.273672,0.24767 0.433832,0.55345 0.355915,0.67953 -0.07792,0.12607 0.01418,0.23862 0.204677,0.25011 0.266366,0.0161 0.269973,0.0517 0.01561,0.15434 -0.181901,0.0734 -0.330729,0.24962 -0.330729,0.3916 0,0.14198 0.148828,0.17412 0.330729,0.0714 0.258831,-0.14613 0.261504,-0.11194 0.0123,0.15729 -0.175135,0.18921 -0.679082,0.33376 -1.119883,0.32122 -0.440799,-0.0125 -0.870082,0.0883 -0.953958,0.22397 -0.09406,0.15221 15.212882,0.24676 39.947488,0.24676 h 40.099987 v -0.93918 c 0,-2.02013 -2.18883,-4.97915 -4.63021,-6.25944 -2.45339,-1.28659 -1.78596,-1.26157 -33.734369,-1.26487 l -30.030207,-0.003 -0.02138,1.65362 c -0.04361,3.37204 -2.323004,5.50436 -5.857096,5.47916 -2.247731,-0.016 -3.686559,-0.80762 -4.789273,-2.63492 -0.797497,-1.32153 -0.863793,-1.58911 -0.72168,-2.9128 l 0.15649,-1.45758 -1.174599,0.0934 -1.174602,0.0934 0.01233,1.37363 c 0.02661,2.96058 -2.373514,5.45575 -5.247918,5.45575 -0.53826,0 -1.102315,0.20859 -1.418159,0.52443 -0.374234,0.37424 -0.821621,0.50684 -1.562123,0.46302 -0.570733,-0.0338 -0.970053,-0.17093 -0.887378,-0.30481 0.08268,-0.13387 -0.03258,-0.17321 -0.256133,-0.0874 -1.493134,0.57296 -4.824042,0.50449 -3.899889,-0.0802 0.306771,-0.19408 0.277672,-0.24396 -0.14609,-0.25045 -0.308126,-0.005 -0.410586,-0.0893 -0.245285,-0.20249 0.156136,-0.10691 0.36076,-0.40275 0.454719,-0.65741 0.149084,-0.40407 0.661299,-0.59708 1.31192,-0.49435 0.109141,0.0172 0.198438,-0.0877 0.198438,-0.23325 0,-0.14552 0.297656,-0.26459 0.661458,-0.26459 0.363802,0 0.661458,-0.0444 0.661458,-0.0987 0,-0.0543 -0.248832,-0.66119 -0.552963,-1.34873 -0.383429,-0.8668 -0.525386,-1.64779 -0.463021,-2.54734 l 0.08994,-1.29727 -0.96701,1.6e-4 -0.967012,1.7e-4 0.137816,1.02748 c 0.275865,2.05674 -1.142384,4.41049 -3.228607,5.35824 -1.26351,0.574 -3.513569,0.63641 -4.723183,0.131 -1.068358,-0.44639 -2.732796,-2.34368 -2.958819,-3.37275 -0.125331,-0.57063 -0.320607,-0.76272 -0.775375,-0.76272 -0.873517,0 -1.731351,2.08902 -1.731351,4.21623 v 1.6046 h 12.699999 c 12.246591,0 12.699999,-0.0177 12.699999,-0.49667 z m -20.372915,-0.13239 c 0,-0.0549 0.178594,-0.24812 0.396875,-0.42927 0.325043,-0.26976 0.396875,-0.25169 0.396875,0.0999 0,0.2361 -0.178594,0.42927 -0.396875,0.42927 -0.218281,0 -0.396875,-0.045 -0.396875,-0.0999 z m 23.432634,-2.88808 c 0.09936,-0.26094 0.247303,-0.40778 0.328766,-0.32632 0.08146,0.0815 1.69e-4,0.29496 -0.180653,0.47443 -0.261307,0.25936 -0.291697,0.22897 -0.148113,-0.14811 z m -9.145135,2.43604 c 0.218281,-0.0165 0.09922,-0.11721 -0.264583,-0.22381 -0.751607,-0.22025 -1.322917,-0.0882 -1.322917,0.30574 0,0.14791 0.265695,0.19593 0.595313,0.1076 0.327422,-0.0877 0.773906,-0.17303 0.992187,-0.18953 z m -11.934081,-5.10307 c 0.434811,-0.52392 0.07236,-1.22416 -0.633627,-1.22416 -0.332663,0 -0.679166,0.19368 -0.770006,0.43041 -0.185311,0.48291 0.263332,1.15709 0.770006,1.15709 0.182645,0 0.467776,-0.16351 0.633627,-0.36334 z m 12.198664,-0.5627 c 0,-0.60554 -0.629591,-1.05873 -1.082209,-0.779 -0.359426,0.22214 -0.290536,1.37897 0.09002,1.51172 0.575445,0.20073 0.992187,-0.10704 0.992187,-0.73272 z m 15.742708,0.13229 c 0,-0.48491 -0.15921,-0.68407 -0.596495,-0.74617 -0.357791,-0.0508 -0.660292,0.0816 -0.755912,0.33073 -0.263438,0.68651 0.105802,1.25391 0.755912,1.1616 0.437285,-0.0621 0.596495,-0.26125 0.596495,-0.74616 z"
         id="path33" />
      <path
         style="fill:#8fb5da;stroke-width:0.264583"
         d="m 127.12567,251.30802 c -0.82777,-0.42334 -1.54421,-0.73055 -1.59207,-0.68269 -0.0479,0.0479 -0.73823,0.1595 -1.53415,0.24807 -0.79591,0.0886 -2.28055,0.27946 -3.2992,0.42419 -1.97391,0.28046 -95.388352,0.36375 -102.12916,0.0911 -5.027411,-0.20338 -7.530814,-0.56844 -11.1124997,-1.62049 -3.9571055,-1.16232 -7.15155749,-3.52256 -7.67545099,-5.67103 -0.26495903,-1.08659 0.48945269,-2.50514 1.83765819,-3.45544 1.1400816,-0.80361 1.1835976,-0.87928 0.8021505,-1.39483 -2.06772134,-2.79465 -2.22386254,-3.22424 -4.718063,-12.98054 l -1.6233775,-6.35 V 168.85178 117.7872 l 0.818732,-2.29299 c 1.115433,-3.12397 2.98184074,-6.04648 5.3940998,-8.44634 2.3179166,-2.30601 4.7830526,-3.85955 7.8100847,-4.92194 L 12.22109,101.383 h 54.107289 54.107291 l 1.97489,0.73111 c 3.07622,1.13883 5.47571,2.70393 7.97014,5.19862 3.13345,3.13376 4.80696,6.15115 5.66261,10.20985 0.3361,1.59423 0.3911,8.71349 0.39506,51.13534 0.005,56.16865 0.31747,48.79841 -2.54243,60.01193 -0.81337,3.18921 -1.49577,6.02772 -1.51644,6.30781 -0.031,0.41941 0.47592,0.68767 2.87283,1.52044 11.0703,3.8462 12.79904,8.18406 4.81588,12.08427 -2.51061,1.22657 -3.85353,1.69433 -7.32942,2.55294 -4.15048,1.02524 -3.95772,1.01931 -5.61312,0.17271 z m -7.69807,-19.38765 c 4.59865,-1.68236 8.46304,-4.71983 10.52506,-8.27287 0.34643,-0.59694 0.90668,-1.91878 1.24498,-2.93743 l 0.61511,-1.85208 v -50.13854 c 0,-48.31224 -0.018,-50.19154 -0.4956,-51.59375 -0.7734,-2.27092 -2.25681,-4.94125 -3.53417,-6.36198 -1.62206,-1.80412 -4.76382,-3.83593 -7.03633,-4.55046 l -1.89848,-0.59693 H 66.196087 c -50.769038,0 -52.704124,0.0177 -54.107289,0.4956 -5.3583225,1.82488 -9.2369208,5.653 -10.8909317,10.74919 l -0.55817288,1.71979 -0.00426,49.74167 c -0.004763,55.7786 -0.18226351,50.79546 1.95615178,54.91773 1.7048426,3.28646 4.787286,6.06514 8.8233668,7.95385 3.417745,1.59936 0.443341,1.52072 55.574875,1.4693 l 50.535413,-0.0471 1.90235,-0.69595 z M 14.620276,229.16989 C 9.7407035,227.82453 5.1624701,223.2652 3.8891153,218.48305 3.6553665,217.60519 3.585281,205.05124 3.6074875,168.03668 c 0.0254,-42.34402 0.083852,-49.46048 0.4153879,-50.57688 0.4845446,-1.63163 2.6539876,-4.74863 4.1502486,-5.96295 0.6256523,-0.50777 1.7606274,-1.23592 2.522167,-1.61813 3.135651,-1.57375 -0.212942,-1.48427 55.543363,-1.48427 36.872766,0 51.519186,0.083 52.530346,0.29773 4.22541,0.89724 8.02938,4.36809 9.45129,8.62361 0.54878,1.64241 0.54975,1.73233 0.54975,51.10286 0,48.58753 -0.009,49.48748 -0.52526,51.15816 -1.21504,3.93386 -4.30008,7.14845 -8.74115,9.10824 l -1.7138,0.75627 -50.932284,0.0442 c -42.226951,0.0366 -51.155336,-0.0173 -52.23727,-0.31562 z m 35.528516,-6.97428 c 0.369562,-0.23421 0.378404,-0.22851 -4.722495,-3.04329 -6.017308,-3.32047 -12.396904,-9.16849 -16.195923,-14.84641 -6.567337,-9.81538 -9.253958,-19.04914 -8.852958,-30.42708 0.234148,-6.64369 1.404244,-11.58974 4.114829,-17.39359 3.726219,-7.97851 9.684395,-14.84009 16.83301,-19.3853 2.514545,-1.5988 7.520239,-3.93105 10.496719,-4.89064 1.502847,-0.4845 2.911041,-0.95113 3.129322,-1.03694 0.218282,-0.0858 -8.820472,-0.18654 -20.08612,-0.22382 -22.986068,-0.0761 -21.125642,-0.24061 -22.433345,1.98406 l -0.739908,1.25873 -0.07027,40.73009 c -0.07721,44.75093 -0.163242,42.22483 1.517174,44.54458 0.873435,1.20574 2.359917,2.26044 3.749368,2.66028 1.112017,0.32 32.760945,0.38597 33.260595,0.0693 z m 68.678298,-0.49841 c 2.01134,-0.92757 3.47101,-2.27328 4.30254,-3.96664 l 0.74562,-1.5184 0.0702,-40.87997 0.0702,-40.87996 -0.59938,-1.18665 c -0.32965,-0.65266 -1.00393,-1.4555 -1.49839,-1.7841 l -0.89903,-0.59744 H 98.833001 c -12.202231,0 -22.185872,0.0485 -22.185872,0.10774 0,0.0593 1.398984,0.54233 3.108854,1.07348 4.396282,1.36565 10.384125,4.38812 13.907856,7.02024 6.506951,4.86048 10.433641,9.81682 15.786511,19.92601 6.28437,11.8684 6.19394,25.778 -0.2532,38.9444 -5.08621,10.38711 -11.787277,17.03453 -22.628147,22.44699 -1.757296,0.87735 -2.753172,1.50983 -2.513541,1.59635 0.908912,0.32814 2.694693,0.36144 17.727078,0.33061 l 15.74271,-0.0323 z m -50.646628,-0.98713 c 0.623094,-0.35619 0.557874,-0.37866 -1.124479,-0.38749 -0.982265,-0.005 -1.785937,0.10095 -1.785937,0.2358 0,0.57187 1.993622,0.67578 2.910416,0.15169 z m 2.590115,-6.22718 c 15.389087,-1.64151 29.112325,-12.53387 33.767783,-26.80204 1.32714,-4.06746 1.84874,-7.57573 1.85534,-12.47911 0.007,-5.19349 -0.54258,-8.59279 -2.12355,-13.1348 -4.09514,-11.76501 -13.522392,-20.83885 -25.770938,-24.80481 -7.365648,-2.38493 -14.146982,-2.68375 -21.777316,-0.95961 -12.711969,2.87237 -23.697675,12.37691 -28.498672,24.65629 -2.038281,5.21326 -2.787509,9.85119 -2.557306,15.83043 0.241869,6.28216 1.227894,10.15785 4.038817,15.875 5.324078,10.82869 15.262504,18.43159 27.656593,21.1573 4.130828,0.90845 8.891475,1.14325 13.409249,0.66135 z m -5.831266,-2.92214 c -0.903081,-0.52599 -1.256765,-1.70354 -1.256765,-4.18424 0,-2.09094 0.07222,-2.46171 0.595312,-3.05613 0.327422,-0.37207 0.977495,-0.74983 1.444609,-0.83946 0.714725,-0.13714 0.981557,-0.0307 1.684015,0.67176 l 0.834721,0.83472 -0.109871,2.56967 c -0.116692,2.72927 -0.407588,3.52179 -1.470414,4.00605 -0.762034,0.34721 -1.122275,0.34671 -1.721607,-0.002 z m -25.514989,-9.24106 c -0.708284,-0.28538 -1.141775,-1.04838 -1.141775,-2.00968 0,-0.56006 0.492845,-1.19731 2.182813,-2.8224 1.200546,-1.15446 2.458965,-2.20617 2.796486,-2.33714 0.854065,-0.33142 1.813108,-0.0342 2.43322,0.75419 0.86724,1.10252 0.671174,1.80391 -0.996373,3.5643 -2.677322,2.8264 -3.812268,3.43982 -5.274371,2.85073 z m 48.860237,-2.04868 c -2.581685,-2.51413 -2.836482,-3.11483 -1.852033,-4.36635 0.619701,-0.78782 1.57844,-1.08544 2.433219,-0.75533 0.922433,0.35624 4.979299,4.51852 4.979299,5.10868 0,1.27385 -1.033092,2.30717 -2.319189,2.31969 -0.733457,0.007 -1.223129,-0.34133 -3.241296,-2.30669 z m -37.761533,-10.6777 c -1.1718,-0.75047 -1.646375,-2.29088 -1.074957,-3.48916 0.231272,-0.48498 2.302428,-2.50784 4.799108,-4.68718 l 4.392244,-3.83398 0.008,-2.09928 c 0.01175,-3.07119 0.995574,-4.72146 4.079441,-6.84276 l 0.691084,-0.47537 v -6.85436 c 0,-7.39752 0.08899,-7.96097 1.361289,-8.6189 1.103436,-0.57061 1.980655,-0.45681 2.915163,0.37817 l 0.845219,0.7552 0.119835,7.32698 0.119838,7.32699 0.957347,0.49254 c 4.182951,2.15205 4.809799,8.46782 1.158624,11.6736 -1.942486,1.70552 -5.225793,2.53139 -7.318272,1.84081 -1.179457,-0.38925 -0.772758,-0.65166 -5.780576,3.72969 -2.100697,1.83791 -4.068652,3.47502 -4.373232,3.63802 -0.838761,0.4489 -1.947529,0.34911 -2.900172,-0.26101 z M 28.553543,177.00903 c -0.587499,-0.23637 -1.174554,-1.68157 -0.987538,-2.4311 0.363963,-1.45869 0.758994,-1.62515 3.856743,-1.62515 1.566273,0 3.040505,0.074 3.276071,0.16436 0.482322,0.18508 1.202478,1.43786 1.202478,2.09181 0,0.23671 -0.348027,0.7784 -0.773398,1.20377 -0.758386,0.75839 -0.826429,0.77299 -3.505729,0.75251 -1.50278,-0.0115 -2.883664,-0.0818 -3.068627,-0.1562 z m 68.508673,-0.24649 c -0.332608,-0.23297 -0.711644,-0.70476 -0.842309,-1.04843 -0.297407,-0.78224 0.144267,-2.14573 0.810572,-2.50233 0.266169,-0.14245 1.842537,-0.259 3.503041,-0.259 2.70749,0 3.06975,0.056 3.50989,0.54233 0.69938,0.7728 0.63446,2.2007 -0.1374,3.02232 -0.5953,0.63365 -0.77518,0.66869 -3.43363,0.66869 -2.144088,0 -2.947984,-0.0998 -3.410164,-0.42358 z m -10.34062,-21.69265 c -0.60285,-0.50727 -0.814051,-0.90904 -0.814051,-1.54862 0,-0.74432 0.349805,-1.20204 2.53203,-3.31314 2.352186,-2.27552 2.591795,-2.43805 3.373438,-2.28813 1.029988,0.19756 2.032031,1.27822 2.032031,2.19146 0,1.23205 -4.720555,5.64341 -6.038955,5.64341 -0.148744,0 -0.636768,-0.30824 -1.084493,-0.68498 z m -46.123945,-1.84188 c -2.040276,-1.98977 -2.315104,-2.36785 -2.315104,-3.18479 0,-1.23683 0.972286,-2.22585 2.188191,-2.22585 0.773094,0 1.206916,0.32385 3.319317,2.4779 2.635943,2.68792 2.868348,3.24346 1.881622,4.49787 -0.436809,0.55532 -0.773229,0.69669 -1.653646,0.69491 -1.029002,-0.002 -1.265039,-0.15804 -3.42038,-2.26004 z m 23.84181,-6.70989 c -0.565531,-0.45767 -0.633492,-0.75124 -0.718371,-3.10318 -0.07538,-2.08873 -0.0039,-2.76453 0.364863,-3.44927 0.906714,-1.68366 3.18084,-1.56946 3.794379,0.19055 0.436219,1.25133 0.381664,4.88393 -0.08696,5.79014 -0.622122,1.20305 -2.234255,1.47788 -3.353913,0.57176 z M 121.2734,126.44629 c 0.45152,-0.28724 -0.0281,-2.53901 -0.83358,-3.91342 -1.31545,-2.24463 -4.21448,-4.26202 -6.96249,-4.84509 -0.99099,-0.21027 -10.19174,-0.29749 -31.380251,-0.29749 H 52.118911 l 0.02713,1.91823 c 0.03243,2.29312 -0.474586,3.35394 -2.173816,4.5482 -1.553181,1.09162 -3.97613,1.26494 -5.740829,0.41066 -2.025099,-0.98033 -3.241259,-3.34046 -2.779733,-5.39446 0.13418,-0.59717 0.160631,-1.15734 0.05878,-1.24482 -0.101854,-0.0875 -0.832643,-0.0875 -1.62398,0 l -1.438796,0.15906 0.06758,1.63228 c 0.07836,1.89278 -0.297154,2.79967 -1.651696,3.98898 -1.219462,1.0707 -2.544326,1.47333 -4.40514,1.33873 -1.761527,-0.12742 -2.994853,-0.83464 -3.989303,-2.28759 -0.531685,-0.77682 -0.637598,-1.25522 -0.637598,-2.87995 v -1.94838 l -1.183841,0.078 -1.183838,0.078 -0.0068,1.76295 c -0.0059,1.52596 -0.11349,1.91448 -0.800534,2.89011 -2.83161,4.02098 -9.140999,2.61139 -9.597961,-2.1443 -0.079,-0.82221 -0.252994,-1.31813 -0.46246,-1.31813 -0.610817,0 -1.94878,1.82231 -2.363636,3.21929 -0.414618,1.39616 -0.553355,3.95572 -0.231844,4.27723 0.243565,0.24357 108.889694,0.21571 109.272804,-0.028 z M 19.944417,120.13245 c 0.218877,-0.57038 -0.25115,-1.28695 -0.844161,-1.28695 -0.25932,0 -0.592717,0.19217 -0.740875,0.42705 -0.404212,0.64081 -0.03059,1.29274 0.740875,1.29274 0.383689,0 0.750176,-0.18792 0.844161,-0.43284 z m 12.087579,-0.15751 c 0.221904,-0.35237 0.187397,-0.55912 -0.149563,-0.89608 -0.792615,-0.79261 -1.975147,0.24328 -1.260589,1.10427 0.411398,0.4957 1.023818,0.40529 1.410152,-0.20819 z m 15.722174,-0.0943 c 0.0434,-0.30377 -0.10391,-0.70404 -0.327361,-0.88949 -0.806527,-0.66936 -1.862728,0.38684 -1.193369,1.19337 0.469225,0.56538 1.423784,0.37464 1.52073,-0.30388 z"
         id="path31" />
      <path
         style="fill:#6fa2db;stroke-width:0.264583"
         d="m 13.80859,246.07882 c -2.547273,-0.45807 -6.1950015,-2.17063 -8.3934508,-3.94062 -1.7390506,-1.40012 -4.264374,-4.83114 -5.02857265,-6.83206 -0.28713111,-0.75179 -1.31370116,-4.46253 -2.28126645,-8.24607 l -1.7592092,-6.87916 v -51.19688 -51.19687 l 0.7311813,-2.12831 c 2.32316586,-6.76223 7.7567309,-11.99577 14.1525348,-13.63154 1.943907,-0.49717 3.506978,-0.51227 55.074109,-0.53215 59.640254,-0.023 54.188644,-0.21462 58.761964,2.06571 2.12406,1.0591 2.90301,1.64342 5.02708,3.77104 2.80311,2.80781 4.143,4.87541 5.23229,8.074 l 0.72083,2.11667 0.0763,50.40312 0.0763,50.40312 -0.5639,2.51355 c -0.31015,1.38244 -0.83682,3.52557 -1.17039,4.76249 -0.33357,1.23693 -0.98851,3.91584 -1.45542,5.95313 -0.46691,2.03729 -1.12653,4.29948 -1.46582,5.02708 -1.94875,4.17907 -7.01637,8.0757 -12.24003,9.41168 -1.93767,0.49558 -3.44749,0.50952 -52.686365,0.48645 -42.86531,-0.0201 -51.018318,-0.0825 -52.808195,-0.40438 z M 9.1385489,238.10643 C 8.3447328,237.26968 7.3272273,236.04929 6.8774225,235.39445 6.4276176,234.7396 5.7396031,233.90617 5.3484986,233.54236 l -0.711102,-0.66145 0.1851263,0.79375 c 0.4277545,1.83407 2.6669549,4.59777 4.4881507,5.53944 1.3578044,0.70207 1.3211834,0.46639 -0.1721247,-1.10767 z M 119.57029,232.05442 c 5.96017,-2.13281 10.06053,-5.98154 11.78234,-11.05924 l 0.7247,-2.13719 0.074,-49.34479 c 0.0829,-55.2676 0.2193,-51.19833 -1.85594,-55.37382 -1.88232,-3.78735 -5.49875,-6.79101 -9.99204,-8.29898 -1.39169,-0.46706 -3.69601,-0.4916 -52.784376,-0.5623 -34.949602,-0.0503 -51.906747,0.0149 -53.139157,0.20443 -6.3663196,0.97906 -11.2100518,5.08101 -13.2795193,11.24585 l -0.63869092,1.90263 -0.0255852,49.8489 c -0.0236008,45.99538 0.008811,49.96141 0.41936986,51.30412 0.57270906,1.87303 1.78682106,4.28673 2.97746986,5.91934 2.0759895,2.84659 7.2394467,6.11163 10.9017377,6.89356 1.436698,0.30675 10.016577,0.36034 52.122914,0.32558 l 50.403127,-0.0416 z M 16.309061,229.29291 c -2.758733,-0.40617 -5.503947,-1.71448 -7.7673195,-3.70175 -1.5782607,-1.38573 -3.5435406,-4.38096 -4.1385991,-6.30754 -0.5273066,-1.70722 -0.5343895,-2.35731 -0.5566436,-51.08368 -0.024818,-54.36291 -0.1437666,-50.43029 1.6077908,-53.15985 1.1086624,-1.7277 3.5928087,-4.05497 5.1935724,-4.86559 3.205847,-1.62344 -0.7571662,-1.51576 55.662393,-1.51232 55.965175,0.003 52.682765,-0.0842 55.620255,1.48486 1.80203,0.96256 4.38046,3.53337 5.33273,5.31698 1.56206,2.92574 1.49767,0.66368 1.49697,52.59397 -5.3e-4,30.36139 -0.0966,48.29636 -0.26544,49.47708 -0.8314,5.81521 -6.18851,10.98955 -12.18331,11.76765 -2.40959,0.31275 -97.875112,0.30339 -100.002399,-0.01 z m 103.006389,-7.31307 c 1.6076,-0.74236 3.93119,-3.07404 4.42934,-4.44477 0.32877,-0.90465 0.39695,-6.97496 0.46952,-41.80416 0.0596,-28.57934 -2.5e-4,-41.03853 -0.20027,-41.7261 -0.36837,-1.26621 -1.47235,-2.56778 -2.56533,-3.02446 -0.70731,-0.29553 -4.85492,-0.35753 -22.898813,-0.3423 -12.119284,0.0102 -22.273185,0.11416 -22.564227,0.23097 -0.43947,0.17637 -0.32735,0.26337 0.661459,0.51325 4.396914,1.11112 9.38309,3.14407 13.108767,5.34465 4.30871,2.54497 9.617067,7.233 12.695194,11.21165 3.85382,4.9813 8.59187,14.43594 8.59187,17.14485 0,0.59469 0.19236,2.10256 0.42747,3.35083 0.79416,4.21644 0.28315,13.00589 -1.0498,18.05683 -2.83093,10.72717 -10.71733,20.98552 -20.708814,26.93729 -5.2374,3.11984 -11.68814,5.32542 -17.749741,6.06885 -7.917608,0.97106 -16.721896,-0.21579 -24.352619,-3.28282 -4.877956,-1.9606 -11.123173,-6.13822 -14.486284,-9.69032 -5.448937,-5.75514 -8.386611,-10.41987 -10.444648,-16.58506 -1.637409,-4.90511 -1.965971,-7.24924 -1.97294,-14.07582 -0.0051,-4.98299 0.08927,-6.69058 0.475176,-8.59896 2.049478,-10.13514 7.885966,-20.10833 15.449589,-26.3997 2.732701,-2.27304 5.539462,-4.12896 8.455405,-5.59098 2.67848,-1.34296 6.495648,-2.92783 7.971271,-3.30963 0.532527,-0.13779 1.4947,-0.3877 2.138164,-0.55535 0.858433,-0.22367 1.069774,-0.36823 0.79375,-0.54293 -0.564279,-0.35714 -40.969518,-0.31795 -41.998448,0.0407 -0.961194,0.33507 -2.320602,2.22762 -2.624442,3.6537 -0.11181,0.52479 -0.203292,19.17072 -0.203292,41.4354 0,38.00188 0.02859,40.56228 0.466791,41.80417 0.61241,1.7356 1.839801,3.11907 3.63425,4.09639 l 1.455209,0.79255 50.667705,-0.0632 50.667708,-0.0632 z m -45.843321,-7.63387 c 7.933073,-1.37142 16.052323,-5.5974 21.7236,-11.30691 6.142061,-6.18346 9.634901,-13.0498 11.132261,-21.88419 0.54622,-3.22264 0.40013,-10.1983 -0.28133,-13.43381 -1.80116,-8.55175 -5.06671,-14.6645 -10.992335,-20.57642 -3.614399,-3.60604 -6.628534,-5.75058 -11.131155,-7.91975 -6.781853,-3.2672 -14.720122,-4.80676 -21.23332,-4.11802 -10.745157,1.13625 -19.22519,5.22773 -26.336822,12.70709 -6.867908,7.22303 -10.505317,15.80479 -10.935543,25.80028 -0.431763,10.03124 2.56269,18.87681 9.129183,26.96747 1.805458,2.22454 5.719481,5.75364 8.176222,7.37215 5.45583,3.59431 12.269041,6.04653 18.936109,6.81549 2.682743,0.30943 8.853474,0.0883 11.81313,-0.42338 z m -8.840023,-3.57807 c -0.631372,-0.75035 -0.684977,-1.01011 -0.684977,-3.31932 0,-2.30714 0.05136,-2.55663 0.649433,-3.1547 0.793668,-0.79367 1.697389,-0.8285 2.622177,-0.10106 0.668838,0.52611 0.69714,0.65418 0.69714,3.1547 0,2.41793 -0.04951,2.66517 -0.684977,3.42038 -0.402773,0.47867 -0.938115,0.81405 -1.299398,0.81405 -0.361283,0 -0.896625,-0.33538 -1.299398,-0.81405 z M 39.24427,201.77316 c -0.861221,-0.67743 -0.915508,-1.74849 -0.138684,-2.73606 1.06679,-1.3562 4.203769,-3.85932 4.836615,-3.85932 1.02253,0 2.013262,0.96803 2.013262,1.96712 0,0.74631 -0.319669,1.17727 -2.242751,3.0235 -2.465869,2.36733 -3.175156,2.62206 -4.468442,1.60476 z m 49.152755,-1.64177 c -1.85566,-1.82667 -2.224897,-2.32844 -2.224897,-3.0235 0,-0.9627 1.011087,-1.93011 2.017255,-1.93011 1.073846,0 5.391078,4.21997 5.391078,5.26962 0,0.86201 -1.149604,1.87413 -2.128702,1.87413 -0.684041,0 -1.22074,-0.38479 -3.054734,-2.19014 z m -37.649939,-10.6145 c -0.811152,-0.44959 -1.33078,-1.39429 -1.342663,-2.44102 -0.01193,-1.05183 0.840402,-1.98399 5.679165,-6.21097 l 3.704166,-3.23584 0.01714,-1.87512 c 0.0094,-1.03131 0.17512,-2.34473 0.368216,-2.91871 0.41021,-1.21936 2.349984,-3.3951 3.423245,-3.83965 0.709096,-0.29372 0.753988,-0.41525 0.914365,-2.47532 0.09276,-1.19154 0.169373,-4.5236 0.170247,-7.40459 l 0.0016,-5.23815 0.700093,-0.64883 c 0.996399,-0.92343 2.29,-0.87443 3.289008,0.12458 l 0.773399,0.77339 v 7.13897 7.13896 l 1.171146,0.68633 c 3.301566,1.93485 4.452591,5.90566 2.704891,9.33134 -0.358431,0.70257 -0.990219,1.59172 -1.403969,1.97589 -1.840045,1.7085 -4.9705,2.48599 -7.339213,1.82279 l -1.175724,-0.32918 -3.738451,3.26957 c -2.056146,1.79827 -4.167016,3.597 -4.690819,3.99718 -1.044734,0.79817 -2.200645,0.92659 -3.225821,0.35838 z M 28.379969,176.50616 c -0.645957,-0.64596 -0.809935,-1.71161 -0.381106,-2.47671 0.370877,-0.6617 0.462997,-0.68177 3.462282,-0.75418 2.891909,-0.0698 3.114891,-0.0383 3.628419,0.51291 0.695409,0.74644 0.695007,1.55111 -0.0013,2.43621 -0.532249,0.67665 -0.632815,0.69714 -3.420684,0.69714 -2.257253,0 -2.961262,-0.0889 -3.287692,-0.41537 z m 68.394695,-0.28177 c -0.301603,-0.38342 -0.54837,-0.8675 -0.54837,-1.07572 0,-0.47901 0.517597,-1.47381 0.899504,-1.72881 0.160118,-0.10692 1.687047,-0.19621 3.393182,-0.19844 l 3.10206,-0.004 0.4173,0.80697 c 0.44682,0.86405 0.3341,1.66226 -0.34372,2.43417 -0.34207,0.38955 -0.87989,0.46302 -3.38909,0.46302 -2.906899,0 -2.996394,-0.0177 -3.530866,-0.69714 z M 41.51702,153.86967 c -2.502876,-2.27971 -2.967061,-2.88176 -2.968575,-3.85029 -0.0011,-0.59405 0.203206,-1.00157 0.695825,-1.38906 1.265447,-0.9954 1.889509,-0.75485 4.240327,1.63444 1.181213,1.20055 2.265843,2.42094 2.41029,2.71198 0.333248,0.67146 0.01241,1.53821 -0.773046,2.08836 -1.055471,0.73928 -1.724181,0.51752 -3.604821,-1.19543 z m 45.197321,0.97304 c -1.04014,-1.10718 -0.810821,-1.84519 1.210652,-3.89622 2.4135,-2.44879 3.138677,-2.95592 3.939428,-2.75495 0.871927,0.21884 1.71604,1.17524 1.71604,1.94432 0,0.69438 -2.323211,3.31652 -4.074594,4.59888 -1.264155,0.92561 -1.996773,0.95395 -2.791526,0.10797 z m -22.238045,-8.61284 c -0.461396,-0.4614 -0.529167,-0.88194 -0.529167,-3.28377 0,-2.75113 0.0011,-2.75547 0.814052,-3.43959 0.922102,-0.77589 1.029983,-0.79785 1.922449,-0.39122 0.965613,0.43997 1.232249,1.32374 1.232249,4.08432 0,2.90674 -0.363868,3.55943 -1.984375,3.55943 -0.573265,0 -1.127628,-0.20159 -1.455208,-0.52917 z M 121.2175,126.65526 c 0.77316,-0.16411 0.80302,-0.22166 0.73997,-1.42615 -0.0991,-1.89307 -1.18157,-3.92408 -2.76217,-5.18257 -2.23803,-1.78195 -4.46182,-2.7319 -6.79721,-2.90363 -1.11827,-0.0822 -15.205196,-0.11921 -31.304284,-0.0822 l -29.271073,0.0673 0.04293,2.06486 c 0.03817,1.83596 -0.0358,2.18424 -0.667221,3.14179 -0.921512,1.39747 -2.764985,2.31874 -4.588385,2.29303 -3.226787,-0.0455 -5.621589,-3.02353 -4.860861,-6.04465 0.167994,-0.66716 0.229774,-1.28869 0.137289,-1.38118 -0.176892,-0.17689 -3.393022,-0.11068 -3.577349,0.0736 -0.05886,0.0589 -0.08281,0.93629 -0.05321,1.94985 0.07437,2.54689 -0.647729,3.7904 -2.847028,4.90285 -0.989176,0.50035 -3.244643,0.60257 -4.285011,0.19421 -1.065562,-0.41825 -2.404758,-1.66779 -2.799186,-2.61179 -0.424722,-1.0165 -0.464539,-2.50725 -0.10084,-3.77539 0.143031,-0.49872 0.224009,-0.94282 0.179951,-0.98688 -0.04406,-0.0441 -0.786165,0.008 -1.649122,0.11592 l -1.569013,0.19603 v 2.00154 c 0,1.72838 -0.09691,2.14812 -0.710147,3.07564 -0.910236,1.37676 -2.557492,2.19656 -4.41361,2.19656 -1.558052,0 -2.491629,-0.39848 -3.509018,-1.49774 -1.046027,-1.1302 -1.2891,-1.76453 -1.2891,-3.36405 0,-0.80134 -0.103968,-1.52124 -0.231042,-1.59977 -0.127071,-0.0785 -0.831638,0.49225 -1.565701,1.26841 -1.509257,1.59582 -2.172007,3.31877 -2.172007,5.64657 0,1.22336 0.08089,1.44708 0.595313,1.64656 0.67958,0.26353 108.087355,0.28439 109.327135,0.0212 z M 19.973381,120.51237 c 0.490924,-0.49092 0.376963,-1.19835 -0.265541,-1.64837 -0.496818,-0.34799 -0.663112,-0.35531 -1.124479,-0.0495 -0.705599,0.46764 -0.8055,1.05209 -0.271171,1.58642 0.507116,0.50712 1.217863,0.55482 1.661191,0.11149 z m 12.085322,-0.20489 c 0.442701,-0.48918 0.444918,-0.56487 0.03491,-1.19062 -0.502931,-0.76757 -1.003205,-0.84664 -1.597375,-0.25247 -0.516514,0.51652 -0.516879,0.64506 -0.0039,1.37744 0.508492,0.72598 0.951958,0.74456 1.566362,0.0657 z m 15.745991,0.12895 c 0.405033,-0.48803 0.152668,-1.60912 -0.410905,-1.82538 -1.036312,-0.39768 -2.004378,0.91799 -1.271405,1.72792 0.53577,0.59202 1.238096,0.63271 1.68231,0.0975 z"
         id="path29" />
      <path
         style="fill:#566c9c;stroke-width:0.264583"
         d="M 13.544007,245.80393 C 8.227525,244.66921 2.893893,240.51649 0.67034539,235.78061 0.25763775,234.90159 -0.8841557,231.03206 -1.8669716,227.18165 l -1.7869375,-7.00074 v -51.19688 -51.19687 l 0.7311813,-2.12831 c 1.9267248,-5.60828 6.0474222,-10.2503 11.1548777,-12.56614 3.6455351,-1.65296 0.057499,-1.5551 58.0962291,-1.58443 59.592581,-0.0301 54.181311,-0.2192 58.737501,2.05259 2.12406,1.0591 2.90301,1.64342 5.02708,3.77104 2.80311,2.80781 4.143,4.87541 5.23229,8.074 l 0.72083,2.11667 0.0695,50.4753 0.0695,50.47529 -0.63752,2.70595 c -0.79481,3.37358 -2.37566,9.69442 -3.12517,12.49554 -0.56671,2.11799 -2.14745,4.99463 -3.61361,6.57606 -2.18259,2.35419 -6.05432,4.59876 -9.4153,5.45835 -2.05657,0.52599 -2.78349,0.533 -53.041258,0.51172 -44.144224,-0.0187 -51.203701,-0.0744 -52.808195,-0.41686 z m 0.139025,-5.33013 c -0.360098,-0.24703 -1.147543,-0.82292 -1.749872,-1.27976 -0.602332,-0.45684 -1.352852,-0.91241 -1.667822,-1.01238 -0.3149681,-0.1 -1.5191979,-1.28836 -2.6760673,-2.64086 -2.1500941,-2.5137 -3.4381597,-3.63651 -3.4377629,-2.99672 1.138e-4,0.18525 0.3546766,1.08611 0.7879159,2.00189 0.8526886,1.80242 3.0223247,4.18286 4.5198822,4.95904 1.3965081,0.7238 3.4817341,1.42708 4.2169921,1.42226 l 0.661459,-0.004 -0.654725,-0.44914 z m 106.324078,-8.44689 c 6.21007,-2.39182 10.52502,-6.87923 11.79481,-12.26621 0.59236,-2.51302 0.60801,-99.86979 0.0164,-102.10583 -1.38164,-5.22218 -5.58283,-9.69213 -10.86359,-11.55857 l -2.10657,-0.74455 -51.196874,-0.0787 c -37.056635,-0.057 -51.781483,0.004 -53.313539,0.2206 -6.8058454,0.9625 -12.2021492,6.02256 -13.73047769,12.87496 -0.38151856,1.71057 -0.424262,6.82495 -0.42013714,50.27083 0.005106,53.8638 -0.11881114,50.24797 1.85977733,54.26204 2.2295484,4.52321 6.8845718,8.24622 11.9897515,9.58921 1.81967,0.47869 3.747114,0.49487 52.820875,0.44354 l 50.932284,-0.0533 z M 16.451545,229.29844 c -3.178665,-0.41587 -5.962909,-1.84232 -8.4374832,-4.32277 -1.8296571,-1.834 -3.3835126,-4.56996 -3.8501291,-6.77914 -0.2288329,-1.0834 -0.2866126,-14.06442 -0.2261447,-50.80562 l 0.081219,-49.35042 0.8475768,-1.72161 c 1.3241443,-2.68962 3.4099049,-4.80536 5.9846632,-6.0707 1.189977,-0.5848 2.804922,-1.18159 3.588768,-1.32621 0.912334,-0.16832 19.67227,-0.26293 52.133471,-0.26293 44.679554,0 50.893214,0.0482 52.263684,0.40512 4.86628,1.26751 8.78389,5.34407 9.64615,10.03754 0.38415,2.09096 0.39348,95.67347 0.01,98.40846 -0.831,5.92385 -6.17872,11.01803 -12.41101,11.82257 -2.17808,0.28117 -97.47003,0.24838 -99.630578,-0.0343 z m 100.484225,-4.48793 c 2.16276,-0.66801 4.43158,-2.33263 5.62039,-4.12364 1.81644,-2.73659 1.71597,-0.075 1.71597,-45.45718 v -41.00358 l -0.55188,-1.14003 c -0.30353,-0.62701 -0.92861,-1.40874 -1.38906,-1.73718 L 121.494,130.75174 H 98.739836 c -14.98292,0 -22.759357,0.0904 -22.769369,0.26459 -0.0084,0.14552 1.122733,0.58441 2.513542,0.9753 4.738227,1.33172 8.645199,3.10776 12.715202,5.78012 4.63151,3.04103 8.560321,6.69126 11.467749,10.6546 4.66567,6.36014 7.08917,12.04291 8.38559,19.66306 1.04003,6.11317 0.45898,13.98033 -1.50064,20.31793 -0.94394,3.0528 -4.01728,9.11967 -6.11039,12.06211 -2.38271,3.34956 -8.012743,8.9612 -11.051684,11.01557 -8.21187,5.55136 -16.482347,8.10897 -26.193749,8.10031 -9.089318,-0.008 -16.649815,-2.0453 -24.077082,-6.4876 -10.878912,-6.50677 -18.695145,-17.67448 -20.96781,-29.95849 -0.682813,-3.69068 -0.613309,-11.78547 0.135171,-15.74271 2.201677,-11.64031 9.453059,-22.80412 18.985054,-29.22827 4.232383,-2.85245 10.183246,-5.5439 14.633341,-6.61837 1.175102,-0.28372 1.842334,-0.56339 1.695191,-0.71053 -0.144526,-0.14453 -9.219991,-0.2113 -22.443047,-0.16513 -23.607463,0.0824 -23.009311,0.0493 -24.4083487,1.35191 -1.6080898,1.49725 -1.4894586,-1.75074 -1.5664814,42.88851 -0.076607,44.39869 -0.1400334,42.36157 1.4007993,44.9908 0.8345698,1.42409 2.8713168,3.35346 4.3206058,4.09283 2.677464,1.36594 0.293164,1.3059 52.595465,1.32459 48.018185,0.0172 48.746375,0.01 50.436825,-0.51236 z M 74.583114,214.2405 c 14.952463,-3.18858 27.095366,-14.38987 30.860146,-28.46713 4.14227,-15.48872 -1.30687,-32.23486 -13.578429,-41.72885 -5.711216,-4.41852 -12.176823,-7.32261 -19.054161,-8.55836 -3.615544,-0.64966 -10.473877,-0.65698 -13.758332,-0.0147 -6.307534,1.23345 -11.818519,3.50019 -16.404166,6.74726 -5.820058,4.12115 -10.166315,9.16469 -13.239382,15.36341 -2.824305,5.69694 -3.79971,9.69484 -4.008331,16.42899 -0.121603,3.92528 -0.06039,5.11359 0.402087,7.80521 1.005404,5.8515 3.222159,11.28149 6.574316,16.10394 2.170835,3.12298 7.069833,7.90021 10.291696,10.03589 5.427813,3.59794 11.507443,5.88002 18.103571,6.79547 2.935076,0.40734 10.883299,0.11319 13.810985,-0.51113 z m -9.862587,-3.43195 c -0.747641,-0.74764 -0.773398,-0.85818 -0.773398,-3.31932 0,-2.3503 0.0499,-2.59582 0.649433,-3.19535 0.793668,-0.79367 1.697389,-0.8285 2.622177,-0.10106 0.670134,0.52713 0.69714,0.65091 0.69714,3.19535 0,2.57284 -0.02167,2.66865 -0.773398,3.42038 -0.425368,0.42537 -0.970307,0.7734 -1.210977,0.7734 -0.24067,0 -0.785609,-0.34803 -1.210977,-0.7734 z m -25.106123,-8.825 c -0.366742,-0.18558 -0.759629,-0.70366 -0.897086,-1.18294 -0.22488,-0.78411 -0.152423,-0.95422 0.900179,-2.11331 1.814573,-1.99816 3.683368,-3.50952 4.339516,-3.50952 0.996973,0 1.99845,0.97422 1.99845,1.94406 0,0.70238 -0.328096,1.16922 -1.918229,2.72935 -2.573477,2.52493 -3.123228,2.78998 -4.42283,2.13236 z m 50.658766,-0.15556 c -0.436563,-0.27035 -1.537891,-1.27163 -2.447396,-2.22506 -1.917263,-2.00986 -2.146864,-2.94044 -0.956506,-3.87678 1.249677,-0.98299 1.819317,-0.75099 4.406482,1.7947 2.122971,2.08893 2.362015,2.41968 2.203955,3.04944 -0.235339,0.93767 -1.080405,1.75148 -1.817473,1.75025 -0.327422,-5.3e-4 -0.9525,-0.22219 -1.389062,-0.49255 z m -39.526084,-12.3111 c -0.811152,-0.44959 -1.33078,-1.39429 -1.342663,-2.44102 -0.01193,-1.05183 0.840402,-1.98399 5.679165,-6.21097 l 3.704166,-3.23584 0.01714,-1.87512 c 0.0094,-1.03131 0.17512,-2.34473 0.368216,-2.91871 0.410546,-1.22036 2.350275,-3.39522 3.425309,-3.84051 0.672213,-0.27844 0.764762,-0.47232 0.91595,-1.91881 0.09249,-0.885 0.168172,-4.21668 0.168172,-7.40374 v -5.79465 l 0.700093,-0.64883 c 0.996399,-0.92343 2.29,-0.87443 3.289008,0.12458 l 0.773399,0.77339 v 7.13897 7.13896 l 1.171146,0.68633 c 3.301566,1.93485 4.452591,5.90566 2.704891,9.33134 -0.358431,0.70257 -0.990219,1.59172 -1.403969,1.97589 -1.884334,1.74962 -4.909211,2.47131 -7.275274,1.73577 l -1.231334,-0.38279 -4.060333,3.57158 c -2.233183,1.96437 -4.417522,3.79429 -4.854085,4.0665 -0.925253,0.57692 -1.860127,0.62035 -2.749002,0.12768 z M 28.357582,176.38895 c -0.265088,-0.29292 -0.481978,-0.88669 -0.481978,-1.3195 0,-1.55134 0.620787,-1.85208 3.82306,-1.85208 2.600494,0 2.9079,0.0524 3.398575,0.57905 0.688068,0.73856 0.68511,1.54569 -0.0089,2.42797 -0.531781,0.67605 -0.634592,0.69714 -3.398575,0.69714 -2.520278,0 -2.905998,-0.0616 -3.332186,-0.53258 z m 68.518145,-0.11685 c -0.718433,-0.71843 -0.800774,-1.2145 -0.345241,-2.07994 0.477946,-0.90802 0.707972,-0.96644 3.821984,-0.97074 2.51113,-0.003 2.99887,0.0659 3.37344,0.4798 0.59928,0.6622 0.55007,1.94178 -0.10159,2.64126 -0.48885,0.52471 -0.80036,0.57905 -3.31932,0.57905 -2.598661,0 -2.82217,-0.0423 -3.429273,-0.64943 z M 41.380929,153.70839 c -1.049266,-0.98005 -2.116116,-2.04062 -2.370778,-2.35684 -0.971587,-1.20643 -0.283165,-2.85925 1.31993,-3.16898 0.79512,-0.15363 1.011541,-0.0154 3.001459,1.91743 1.179505,1.14565 2.29761,2.38065 2.484679,2.74445 0.411786,0.80083 0.153527,1.62676 -0.694378,2.22065 -1.082781,0.75841 -1.726242,0.52505 -3.740912,-1.35671 z m 45.333412,1.13432 c -1.101407,-1.17239 -0.839647,-1.85858 1.636861,-4.29096 1.967063,-1.93201 2.362131,-2.20521 3.188869,-2.20521 1.016765,0 2.04039,0.93949 2.04039,1.87268 0,0.56485 -2.599743,3.44958 -4.074594,4.52126 -1.266052,0.91996 -1.998125,0.94677 -2.791526,0.10223 z m -22.238045,-8.61284 c -0.460836,-0.46084 -0.529167,-0.88194 -0.529167,-3.26117 0,-2.51364 0.04895,-2.77799 0.612365,-3.30729 0.8665,-0.81404 2.114444,-0.75988 2.808015,0.12185 0.470601,0.59827 0.54837,1.0673 0.54837,3.30729 0,3.02586 -0.347615,3.66849 -1.984375,3.66849 -0.573265,0 -1.127628,-0.20159 -1.455208,-0.52917 z m 58.340624,-19.5362 1.32291,-0.17526 -0.0101,-3.70417 c -0.01,-3.47571 -0.053,-3.78575 -0.70474,-5.02708 -0.925,-1.7617 -2.38037,-3.11881 -4.3122,-4.02107 l -1.5875,-0.74143 -50.648238,-0.0695 c -55.043935,-0.0755 -52.357592,-0.14198 -54.727518,1.35409 -1.33846,0.84493 -2.6329238,2.35067 -3.3076853,3.84754 -0.4639733,1.02927 -0.5521219,1.77099 -0.5692299,4.78974 l -0.020241,3.57187 1.8520832,0.15172 c 2.613105,0.21405 111.103379,0.23671 112.712499,0.0235 z M 18.041923,124.03643 c -1.25884,-0.57806 -1.822958,-1.16811 -2.371159,-2.48014 -0.869222,-2.08035 -0.307554,-4.12921 1.535822,-5.6024 0.952394,-0.76113 1.156729,-0.81256 3.228398,-0.81256 h 2.211649 l 1.062178,1.03719 c 1.320895,1.28982 1.866418,3.20243 1.355214,4.75139 -0.963234,2.91863 -4.257547,4.37601 -7.022102,3.10652 z m 1.931458,-3.52406 c 0.174625,-0.17462 0.3175,-0.49267 0.3175,-0.70677 0,-0.49487 -0.770466,-1.35698 -1.212733,-1.35698 -0.444889,0 -1.168517,0.73732 -1.168517,1.19063 0,0.92545 1.413426,1.52344 2.06375,0.87312 z m 10.680771,3.46889 c -2.940788,-1.494 -3.506033,-5.30838 -1.137607,-7.67681 1.962872,-1.96287 5.203401,-2.0519 7.311601,-0.20088 2.335911,2.05096 1.723173,6.42121 -1.089602,7.77136 -1.590902,0.76364 -3.703568,0.80782 -5.084392,0.10633 z m 1.323708,-3.58927 c 0.61808,-0.55936 0.611309,-0.95226 -0.02635,-1.52934 -1.056465,-0.95608 -2.413097,0.40055 -1.45701,1.45701 0.565002,0.62432 0.85765,0.63859 1.483363,0.0723 z m 12.662558,3.72309 c -2.638681,-1.14451 -3.65947,-4.09894 -2.322975,-6.7233 1.403067,-2.75509 5.830871,-3.27255 8.342651,-0.97498 0.908002,0.83056 1.479833,3.06265 1.123566,4.38573 -0.785884,2.91855 -4.297349,4.54693 -7.143242,3.31255 z m 3.114212,-3.60271 c 0.439438,-0.43944 0.396899,-1.1528 -0.09827,-1.64798 -0.544634,-0.54463 -0.798309,-0.5246 -1.436309,0.1134 -0.638001,0.638 -0.658027,0.89167 -0.113393,1.43631 0.495173,0.49517 1.208537,0.53771 1.647976,0.0983 z"
         id="path27" />
      <path
         style="fill:#3a60a7;stroke-width:0.264583"
         d="m 13.544007,245.55769 c -2.96454,-0.6097 -6.5381796,-2.54273 -8.755028,-4.7357 -3.5974468,-3.55871 -4.04529376,-4.56195 -6.6702408,-14.94213 l -1.508064,-5.96354 -0.07557,-50.00624 c -0.05384,-35.62834 0.00855,-50.50073 0.2169424,-51.72604 0.9922642,-5.83394 5.4527183,-11.72289 10.9255476,-14.42457 4.3348558,-2.13991 -0.1850443,-1.99433 59.5089658,-1.91663 l 53.24911,0.0693 1.97349,0.73064 c 6.78671,2.51262 12.10192,8.64957 13.23111,15.27665 0.20916,1.22749 0.27084,16.03446 0.21548,51.72604 l -0.0776,50.00625 -1.01391,3.70417 c -0.55765,2.03729 -1.30243,4.94612 -1.65507,6.46407 -1.06175,4.5704 -1.63592,6.19999 -2.79013,7.9189 -2.16099,3.21823 -5.3469,5.65712 -9.62529,7.36839 l -1.84563,0.73822 -51.726041,0.0465 c -44.111281,0.0397 -51.99869,-0.01 -53.578122,-0.33435 z m 3.041695,-4.01168 c -5.3e-4,-0.10914 -1.203482,-0.79375 -2.673163,-1.52135 -1.46968,-0.72761 -2.927741,-1.57182 -3.240132,-1.87603 -0.312391,-0.30422 -0.7708951,-0.66309 -1.0188943,-0.7975 -0.2480019,-0.1344 -1.0814394,-1.02633 -1.8520833,-1.98206 -1.8509958,-2.29554 -3.5926975,-3.84206 -3.9380449,-3.49671 -0.3470513,0.34705 0.554908,2.77098 1.641557,4.41151 1.5287968,2.30807 4.3599812,4.1759 7.6421905,5.04183 1.583859,0.41786 3.440186,0.5368 3.43857,0.22031 z m 104.923878,-1.51294 c 0.28247,-0.21365 0.3745,-0.39225 0.2045,-0.39688 -0.50265,-0.0137 -1.14612,0.29458 -1.14612,0.54907 0,0.34675 0.35858,0.28879 0.94162,-0.15219 z M 17.238823,237.94754 c 0.438801,-0.32086 0.342715,-0.37587 -0.941618,-0.53912 -0.786654,-0.1 -1.787469,-0.28572 -2.224032,-0.41274 -0.436562,-0.12701 -1.329531,-0.30099 -1.984375,-0.38661 l -1.190625,-0.15568 0.783696,0.59501 c 0.431033,0.32725 1.502595,0.72674 2.38125,0.88776 2.256758,0.41355 2.623913,0.41486 3.175704,0.0114 z m 103.990597,-1.13807 c 2.32253,-1.20566 4.32532,-2.00408 5.1284,-2.04447 0.70327,-0.0354 0.95606,-0.23717 1.50276,-1.19965 0.63573,-1.11923 0.65621,-1.90136 0.0279,-1.06676 -0.50351,0.66886 -2.56075,1.97722 -4.54316,2.88935 -1.95743,0.90062 -6.08144,2.12317 -7.16211,2.12317 -0.3533,0 -0.64236,0.0968 -0.64236,0.21511 0,0.38946 4.60053,-0.35196 5.68854,-0.91675 z m 4.89479,-0.6525 c 0,-0.14552 -0.11906,-0.191 -0.26458,-0.10106 -0.14552,0.0899 -0.26459,0.28258 -0.26459,0.4281 0,0.14552 0.11907,0.191 0.26459,0.10106 0.14552,-0.0899 0.26458,-0.28258 0.26458,-0.4281 z M 9.8810199,235.89279 c -0.5594376,-0.29513 -1.0759783,-0.47778 -1.1478709,-0.40589 -0.1752573,0.17526 1.267087,0.94498 1.768149,0.9436 0.218282,-5.3e-4 -0.06084,-0.24258 -0.6202781,-0.53771 z M 118.319,232.93771 c 0.87313,-0.25664 2.83155,-1.08097 4.35204,-1.83185 4.86018,-2.40013 8.10397,-6.27834 9.46974,-11.32183 0.43701,-1.61375 0.46492,-4.77055 0.45274,-51.19687 -0.0146,-55.6654 0.18144,-50.44228 -2.05557,-54.76875 -1.91857,-3.71061 -5.68481,-6.8286 -9.8377,-8.14442 l -1.85208,-0.58683 H 66.196087 13.544007 l -2.260645,0.80961 c -5.3998785,1.93385 -9.2579161,6.12674 -10.81816922,11.75711 -0.54418704,1.96376 -0.5472271,2.24752 -0.5472271,51.07081 0,54.72898 -0.15567289,50.23527 1.88678072,54.46452 2.5174071,5.21272 8.5555586,9.35274 14.6969396,10.07686 0.99265,0.11704 23.950444,0.19603 51.017318,0.17554 46.173096,-0.035 49.310546,-0.0661 50.799996,-0.5039 z m -98.292702,-3.89901 -5.159375,-0.13804 -2.248958,-1.07344 C 8.9174895,226.06095 5.9846099,222.84748 4.7621582,219.21982 4.3071887,217.86969 4.2835905,215.3468 4.2835905,168.05799 v -49.74166 l 0.8426925,-1.77888 c 1.4444212,-3.0491 4.0294029,-5.40492 7.422795,-6.76476 l 1.788679,-0.71678 51.06458,-0.0452 c 32.925513,-0.0292 51.628493,0.0485 52.652083,0.21861 3.22246,0.53554 6.36885,2.6347 8.31306,5.54618 2.03138,3.04202 1.87794,-1.33611 1.88178,53.69319 0.003,47.92661 -0.0115,49.42608 -0.50374,51.00774 -1.07255,3.44608 -3.89662,6.52557 -7.62493,8.31454 -1.99037,0.95504 -2.45611,1.06756 -5.29917,1.28015 -3.2206,0.24084 -85.635634,0.21267 -94.795122,-0.0324 z m 96.401022,-3.80628 c 1.95904,-0.46091 4.93532,-2.45631 6.02406,-4.03873 0.43998,-0.63949 1.05941,-1.72429 1.37651,-2.41067 l 0.57653,-1.24795 0.0701,-41.7434 c 0.0766,-45.59236 0.17537,-42.38725 -1.35787,-44.07288 -1.29377,-1.42235 -0.23278,-1.36423 -24.826746,-1.35987 -13.840065,0.002 -22.988896,0.10233 -23.228113,0.25357 -0.651682,0.412 -0.02106,0.76303 2.659551,1.48041 8.358108,2.23678 15.854521,6.72949 21.824574,13.07979 2.134024,2.26995 3.358144,3.89794 5.482974,7.29195 7.67255,12.25542 8.34749,28.50049 1.73614,41.7871 -5.91805,11.89331 -16.695208,20.64136 -29.142689,23.65574 -5.829967,1.41183 -10.089451,1.7996 -14.991606,1.36478 -17.020074,-1.50969 -30.149497,-10.28621 -37.429981,-25.02052 -3.176923,-6.42948 -4.195376,-10.89952 -4.219791,-18.52083 -0.01551,-4.83845 0.207144,-6.83867 1.207209,-10.84545 2.120204,-8.49461 7.063329,-16.87231 13.274364,-22.49762 5.315778,-4.81449 12.644749,-8.78903 19.366243,-10.50242 1.662874,-0.42389 2.371426,-0.72309 2.371426,-1.00138 0,-0.34969 -2.689932,-0.39688 -22.621874,-0.39688 -22.367927,0 -22.635241,0.006 -23.812499,0.55135 -0.753033,0.34871 -1.4823521,0.97244 -1.9843751,1.6971 l -0.79375,1.14575 -0.071874,40.61163 c -0.045738,25.84327 0.02286,41.12416 0.1886638,42.02102 0.7764621,4.20028 4.5351623,7.98244 8.7467513,8.80137 0.654844,0.12733 22.979062,0.24269 49.609373,0.25636 40.245749,0.0207 48.680029,-0.0366 49.966649,-0.33932 z M 73.35281,214.75473 c 14.764558,-2.52413 27.10618,-12.95933 31.75391,-26.84886 1.5355,-4.58878 2.05267,-8.43343 1.88688,-14.02704 -0.19927,-6.72297 -1.27194,-11.05461 -4.16054,-16.80105 -5.578656,-11.09791 -16.131141,-18.97739 -29.096348,-21.7261 -3.776736,-0.80069 -11.031148,-0.86797 -14.948958,-0.13865 -9.090225,1.6922 -17.440419,6.35113 -23.495586,13.10921 -4.569684,5.10014 -8.071826,11.8187 -9.417166,18.066 -2.267585,10.52991 -0.423881,21.28147 5.150353,30.03429 6.412129,10.06852 16.962,16.79703 29.120254,18.57236 3.092696,0.45159 9.883179,0.32811 13.207201,-0.24016 z m -8.495215,-4.07713 c -0.436576,-0.31892 -0.52705,-0.76953 -0.603351,-3.00493 -0.08854,-2.59408 -0.07998,-2.63744 0.630994,-3.19669 0.909529,-0.71544 1.448504,-0.71549 2.216264,-2.1e-4 0.57214,0.53303 0.602022,0.72359 0.502394,3.20402 -0.0888,2.21083 -0.187272,2.69676 -0.609,3.00514 -0.64503,0.47165 -1.485561,0.46877 -2.137301,-0.007 z m -25.371109,-9.24474 c -0.371123,-0.37113 -0.674772,-0.87147 -0.674772,-1.11188 0,-0.57266 3.54104,-4.21768 4.471976,-4.60329 1.426618,-0.59092 2.758768,0.58139 2.300695,2.02465 -0.224178,0.70632 -3.93955,3.99294 -4.74133,4.19417 -0.520351,0.1306 -0.841579,0.0113 -1.356569,-0.50365 z m 51.013431,0.11504 c -0.457371,-0.27889 -1.5587,-1.21856 -2.447395,-2.08814 -1.56531,-1.53166 -1.932133,-2.3409 -1.413322,-3.11789 0.359627,-0.53859 1.400376,-0.93029 1.981623,-0.7458 0.712674,0.22619 3.541292,2.8776 4.187401,3.92506 0.421431,0.68322 0.433406,0.85359 0.104672,1.48929 -0.329398,0.63699 -0.882176,1.04846 -1.404596,1.04554 -0.09724,-5.3e-4 -0.551011,-0.22917 -1.008383,-0.50806 z M 51.046679,189.22623 c -0.859761,-0.37366 -1.387049,-1.25184 -1.387049,-2.31009 0,-0.631 1.522941,-2.17448 6.283854,-6.36861 l 3.241145,-2.85529 0.0024,-2.17129 c 0.0021,-1.93146 0.09114,-2.32588 0.80514,-3.57093 0.558787,-0.97438 1.231191,-1.67376 2.213094,-2.30188 0.77574,-0.49623 1.48499,-1.09652 1.57611,-1.33398 0.09122,-0.23746 0.165774,-3.52304 0.165774,-7.30129 v -6.86955 l 0.649433,-0.64944 c 0.734235,-0.73423 1.855774,-0.83907 2.638822,-0.24667 0.734166,0.55542 0.903592,2.26023 0.925764,9.3153 l 0.01931,6.14619 0.992188,0.51136 c 3.974274,2.04828 4.901694,7.21228 1.883359,10.48678 -1.952751,2.11849 -4.589433,2.89175 -7.236446,2.12224 l -1.501619,-0.43653 -2.823427,2.44632 c -1.552887,1.34547 -3.447248,3.02395 -4.209692,3.72994 -0.762445,0.706 -1.800416,1.45668 -2.306606,1.66818 -1.081259,0.45178 -0.864491,0.45299 -1.93154,-0.0108 z M 28.666264,176.1731 c -0.613048,-0.67741 -0.570405,-2.07244 0.07389,-2.41726 0.281474,-0.15064 1.70748,-0.27389 3.168901,-0.27389 2.510967,0 2.679957,0.0348 3.072175,0.63344 0.497258,0.75891 0.288171,1.90715 -0.415891,2.28396 -0.264734,0.14168 -1.601806,0.2576 -2.971265,0.2576 -2.076183,0 -2.562691,-0.0804 -2.92781,-0.48385 z m 68.581748,0.2146 c -0.663123,-0.38726 -0.848347,-1.53651 -0.366234,-2.27231 0.395825,-0.6041 0.548683,-0.63344 3.300462,-0.63344 2.27033,0 2.97405,0.0886 3.3012,0.41577 0.5728,0.57281 0.52078,1.59589 -0.1134,2.23006 -0.45812,0.45813 -0.8755,0.52809 -3.10885,0.52112 -1.418828,-0.004 -2.774757,-0.12196 -3.013178,-0.2612 z M 42.911869,154.73027 c -0.436076,-0.26932 -1.545095,-1.27817 -2.464488,-2.2419 -1.329917,-1.39404 -1.654426,-1.89647 -1.5875,-2.45784 0.110413,-0.92613 1.276313,-1.80313 2.064523,-1.55297 0.881562,0.2798 4.765672,4.39811 4.766108,5.05349 7.94e-4,1.22215 -1.613447,1.91884 -2.778643,1.19922 z m 44.076938,-0.0108 c -1.055378,-1.05537 -0.753129,-1.81959 1.604872,-4.05782 2.303616,-2.18661 3.157514,-2.51941 4.019733,-1.56667 0.855792,0.94564 0.550486,1.66615 -1.612638,3.80571 -2.304256,2.27915 -3.162517,2.66823 -4.011967,1.81878 z m -22.365218,-8.81306 c -0.300929,-0.42963 -0.411876,-1.24926 -0.411876,-3.04271 0,-2.71526 0.390532,-3.513 1.719791,-3.513 1.329259,0 1.719792,0.79774 1.719792,3.513 0,2.92971 -0.332066,3.63075 -1.719792,3.63075 -0.626001,0 -1.020162,-0.17721 -1.307915,-0.58804 z m 59.560371,-19.07925 c 0.12125,-0.12123 0.22046,-1.84763 0.22046,-3.83646 0,-3.3617 -0.049,-3.71839 -0.69704,-5.07125 -0.92127,-1.92332 -2.27818,-3.24294 -4.41758,-4.29617 l -1.7534,-0.8632 H 66.333954 c -58.3985449,0 -52.683013,-0.24735 -55.546599,2.40383 -2.3702084,2.19439 -2.7736689,3.33979 -2.7879961,7.91492 l -0.011615,3.70416 1.8520833,0.15439 c 2.9169758,0.24314 114.0978828,0.13598 114.3441228,-0.11022 z M 18.800375,124.08677 c -0.920067,-0.18031 -2.680459,-1.86936 -3.019726,-2.89734 -1.030597,-3.12274 1.263038,-5.99249 4.820729,-6.0316 1.619906,-0.0178 2.475105,0.41957 3.497254,1.78863 0.776523,1.04007 0.891358,3.70777 0.212725,4.94174 -0.894048,1.62567 -3.377919,2.61659 -5.510982,2.19857 z m 1.43759,-3.30982 c 0.742328,-0.74232 -0.01828,-2.59291 -1.065731,-2.59291 -0.730777,0 -1.527186,0.7349 -1.527186,1.40923 0,1.19542 1.772171,2.00443 2.592917,1.18368 z m 10.593963,2.95756 c -1.189728,-0.62851 -1.979366,-1.60007 -2.375751,-2.92309 -0.472472,-1.57697 0.356311,-3.83146 1.771007,-4.81758 1.548283,-1.07924 3.620799,-1.25751 5.280252,-0.45418 1.446913,0.70044 2.139368,1.70135 2.378151,3.43751 0.18229,1.3254 -0.263366,2.8176 -1.134485,3.79861 -1.255583,1.41399 -4.165301,1.88528 -5.919174,0.95873 z m 1.30633,-3.05193 c 0.696323,-0.48773 0.75991,-1.34092 0.150157,-2.01469 -0.53739,-0.59381 -1.499196,-0.62565 -2.05676,-0.0681 -0.527005,0.52701 -0.528296,1.15792 -0.0039,1.9066 0.48397,0.69097 1.09507,0.74731 1.9105,0.17617 z m 12.62658,3.14797 c -2.112483,-1.11171 -2.991556,-2.77183 -2.65526,-5.01441 0.532786,-3.55288 5.547011,-4.99875 8.185457,-2.36031 1.30071,1.30071 1.627505,3.73814 0.72889,5.4365 -1.021326,1.93029 -4.328261,2.95433 -6.259087,1.93822 z m 3.254375,-3.0536 c 0.492096,-0.49209 0.375153,-1.66497 -0.219678,-2.20329 -1.204624,-1.09017 -3.073783,0.77899 -1.983613,1.98362 0.538313,0.59483 1.711195,0.71177 2.203291,0.21967 z"
         id="path25" />
      <path
         style="fill:#26245b;stroke-width:0.264583"
         d="m 15.141804,245.68611 c -4.75566,-0.7008 -8.5866334,-2.81956 -11.8849979,-6.57312 -2.0511346,-2.33421 -2.90029621,-4.46326 -4.8697248,-12.20957 l -1.7764071,-6.9871 -0.07557,-50.00624 c -0.05384,-35.62834 0.00855,-50.50073 0.2169424,-51.72604 0.9922642,-5.83394 5.4527183,-11.72289 10.9255476,-14.42457 4.3348558,-2.13991 -0.1850443,-1.99433 59.5089658,-1.91663 l 53.24911,0.0693 1.97349,0.73064 c 6.71593,2.48641 12.01791,8.55406 13.21799,15.12681 0.19916,1.09081 0.28664,16.61811 0.28664,50.8773 0,54.09087 0.11961,49.86195 -1.59227,56.2965 -0.42587,1.60073 -1.14527,4.45823 -1.59867,6.35 -0.4534,1.89177 -1.17291,4.09652 -1.59892,4.89944 -2.2768,4.29122 -5.95073,7.24772 -11.21743,9.02695 l -1.85208,0.62569 -50.667708,0.0365 c -27.951783,0.0201 -51.374815,-0.0677 -52.244908,-0.1959 z m 104.049856,-4.29206 c 3.91273,-1.13328 7.05118,-3.67257 8.75614,-7.0845 1.29205,-2.58562 1.00279,-3.00295 -1.05046,-1.51558 -1.73155,1.25432 -5.75502,3.07679 -8.10414,3.67083 -2.04045,0.51598 -2.96086,0.52385 -53.133637,0.45434 -48.035909,-0.0666 -51.151163,-0.0986 -52.644723,-0.54107 -2.197751,-0.65112 -6.1772135,-2.6561 -7.4726902,-3.76498 -1.180121,-1.01014 -1.9200176,-1.18445 -1.9200176,-0.45232 0,1.04436 1.877425,4.35165 3.2371848,5.70264 1.794248,1.78268 3.315655,2.65234 6.058389,3.46307 l 2.213801,0.65439 50.968457,0.0141 50.968456,0.0141 2.12324,-0.61498 z m -2.9706,-8.13562 c 4.43155,-0.61637 8.36497,-2.61661 11.65241,-5.92553 2.31179,-2.32689 3.40733,-4.20512 4.26617,-7.31406 0.43847,-1.58723 0.46686,-4.72345 0.46686,-51.56397 v -49.87396 l -0.61321,-1.71979 c -1.91799,-5.37919 -6.12933,-9.55104 -11.29304,-11.18713 l -1.85208,-0.58683 H 66.196087 13.544007 l -2.260645,0.80961 c -5.3998785,1.93385 -9.2579161,6.12674 -10.81816922,11.75711 -0.54418704,1.96376 -0.5472271,2.24752 -0.5472271,51.07081 0,54.72535 -0.15409333,50.29579 1.89588502,54.49892 2.4646571,5.05336 8.3420903,9.1771 14.3270383,10.05216 2.25216,0.32928 97.706911,0.31275 100.080171,-0.0173 z m -96.194762,-4.21973 -5.159375,-0.13804 -2.248958,-1.07344 c -3.6210396,-1.72835 -6.4724197,-4.80233 -7.8439032,-8.45626 -0.4699211,-1.25197 -0.4939612,-3.34655 -0.5737622,-49.99005 -0.061095,-35.70808 -0.00265,-49.15528 0.2197524,-50.45408 0.8203511,-4.79349 5.5707092,-9.05591 10.843746,-9.72993 1.223968,-0.15646 21.349429,-0.22395 52.519789,-0.17613 50.448273,0.0774 50.537993,0.0785 52.030573,0.62838 2.70462,0.99646 4.99087,2.78653 6.55996,5.13627 2.02364,3.03042 1.87131,-1.33076 1.87514,53.68324 0.003,47.92661 -0.0115,49.42608 -0.50374,51.00774 -1.07255,3.44608 -3.89662,6.52557 -7.62493,8.31454 -1.99037,0.95504 -2.45611,1.06756 -5.29917,1.28015 -3.2206,0.24084 -85.635634,0.21267 -94.795122,-0.0324 z m 97.631242,-3.89367 c 2.96019,-1.20451 5.71012,-4.03608 6.61741,-6.81387 0.27799,-0.8511 0.34034,-9.15091 0.32133,-42.7747 -0.0258,-45.64432 0.0897,-42.38818 -1.5573,-43.91249 -0.41318,-0.3824 -1.01129,-0.82889 -1.32915,-0.99219 -0.73829,-0.3793 -46.049812,-0.41747 -46.647989,-0.0393 -0.651682,0.412 -0.02106,0.76303 2.659551,1.48041 14.626381,3.91428 26.212828,14.58554 31.032228,28.58106 4.17434,12.12228 2.84852,25.51652 -3.60354,36.40513 -5.528123,9.32936 -14.444362,16.58112 -24.382722,19.83097 -11.903474,3.89245 -25.327149,2.83037 -36.154499,-2.86053 -5.235739,-2.75193 -9.588108,-6.23134 -13.160731,-10.52105 -9.047517,-10.86353 -12.336203,-23.63468 -9.575109,-37.1836 1.238416,-6.07701 4.073075,-12.3134 8.203445,-18.04798 1.794963,-2.49212 6.694138,-7.26578 9.525,-9.28097 4.303244,-3.06332 11.414873,-6.28752 16.216555,-7.35208 1.149694,-0.2549 1.512049,-0.44417 1.451544,-0.75819 -0.07279,-0.37778 -2.319798,-0.4185 -23.095719,-0.4185 -22.720524,0 -23.026896,0.007 -23.937763,0.54203 -0.5074738,0.29812 -1.28138,1.12218 -1.7197919,1.83125 l -0.7971155,1.28922 -0.071911,40.345 c -0.047741,26.78577 0.01942,40.83911 0.1998742,41.81521 0.8298815,4.48924 4.0242802,7.91392 8.4709952,9.08165 1.595244,0.41892 5.274143,0.44779 50.799997,0.39863 l 49.080201,-0.053 z M 73.209628,214.78924 c 12.888409,-2.10269 24.266023,-10.52616 30.052652,-22.24963 8.358,-16.93294 3.00607,-38.49481 -12.314539,-49.6129 -5.168318,-3.75062 -11.730204,-6.60854 -17.740196,-7.72645 -3.94051,-0.73297 -11.429176,-0.66685 -15.169964,0.13394 -4.069029,0.87106 -6.464776,1.69434 -10.097743,3.47002 -6.547863,3.2004 -11.897298,7.8096 -15.993723,13.78059 -8.206067,11.96125 -9.331478,27.54683 -2.910649,40.30902 5.895755,11.71854 17.249557,19.94162 30.349577,21.98094 3.529113,0.54939 10.185305,0.50821 13.824585,-0.0855 z m -8.352033,-4.11164 c -0.436576,-0.31892 -0.52705,-0.76953 -0.603351,-3.00493 -0.08854,-2.59408 -0.07998,-2.63744 0.630994,-3.19669 0.909529,-0.71544 1.448504,-0.71549 2.216264,-2.1e-4 0.57214,0.53303 0.602022,0.72359 0.502394,3.20402 -0.0888,2.21083 -0.187272,2.69676 -0.609,3.00514 -0.64503,0.47165 -1.485561,0.46877 -2.137301,-0.007 z m 25.642322,-9.1297 c -0.457371,-0.27889 -1.5587,-1.21856 -2.447395,-2.08814 -1.56531,-1.53166 -1.932133,-2.3409 -1.413322,-3.11789 0.359627,-0.53859 1.400376,-0.93029 1.981623,-0.7458 0.712674,0.22619 3.541292,2.8776 4.187401,3.92506 0.421431,0.68322 0.433406,0.85359 0.104672,1.48929 -0.329398,0.63699 -0.882176,1.04846 -1.404596,1.04554 -0.09724,-5.3e-4 -0.551011,-0.22917 -1.008383,-0.50806 z m -51.10612,-0.073 c -0.174625,-0.17463 -0.3175,-0.68384 -0.3175,-1.13158 0,-0.65589 0.347033,-1.15395 1.785937,-2.5632 0.982266,-0.96201 2.051386,-1.88444 2.375821,-2.04983 0.74046,-0.37746 1.856716,-0.11361 2.195221,0.5189 0.566558,1.05862 0.276548,1.63983 -1.792917,3.59317 -1.744532,1.64665 -2.190683,1.93655 -2.989791,1.94275 -0.516599,0.004 -1.082146,-0.13559 -1.256771,-0.31021 z m 11.652882,-12.24864 c -0.859761,-0.37366 -1.387049,-1.25184 -1.387049,-2.31009 0,-0.631 1.522941,-2.17448 6.283854,-6.36861 l 3.241145,-2.85529 0.0024,-2.17129 c 0.0021,-1.93146 0.09114,-2.32588 0.80514,-3.57093 0.558787,-0.97438 1.231191,-1.67376 2.213094,-2.30188 0.77574,-0.49623 1.48499,-1.09652 1.57611,-1.33398 0.09122,-0.23746 0.165774,-3.52304 0.165774,-7.30129 v -6.86955 l 0.649433,-0.64944 c 0.734235,-0.73423 1.855774,-0.83907 2.638822,-0.24667 0.734166,0.55542 0.903592,2.26023 0.925764,9.3153 l 0.01931,6.14619 0.992188,0.51136 c 5.736296,2.9564 4.427262,11.36404 -1.983391,12.73888 -1.09461,0.23475 -1.678569,0.2066 -3.097794,-0.14933 l -1.748909,-0.43861 -2.835733,2.45709 c -1.559655,1.3514 -3.459554,3.03473 -4.221998,3.74072 -0.762445,0.706 -1.800416,1.45668 -2.306606,1.66818 -1.081259,0.45178 -0.864491,0.45299 -1.93154,-0.0108 z M 28.666264,176.1731 c -0.553093,-0.61116 -0.563999,-1.73349 -0.02212,-2.27538 0.324699,-0.32469 1.018836,-0.41577 3.168901,-0.41577 2.612231,0 2.774365,0.0324 3.168173,0.63344 0.497258,0.75891 0.288171,1.90715 -0.41589,2.28396 -0.264734,0.14168 -1.601806,0.2576 -2.971266,0.2576 -2.076182,0 -2.56269,-0.0804 -2.92781,-0.48385 z m 68.581748,0.2146 c -0.663123,-0.38726 -0.848347,-1.53651 -0.366234,-2.27231 0.395502,-0.60361 0.549894,-0.63344 3.278362,-0.63344 2.43791,0 2.92836,0.0719 3.30119,0.48385 0.58878,0.6506 0.55213,1.51857 -0.0913,2.16198 -0.45812,0.45813 -0.8755,0.52809 -3.10885,0.52112 -1.418828,-0.004 -2.774757,-0.12196 -3.013178,-0.2612 z M 42.911869,154.73027 c -1.22931,-0.75921 -4.100155,-3.89562 -4.100155,-4.47944 0,-0.65038 0.748691,-1.54262 1.468514,-1.75007 0.700116,-0.20178 1.783596,0.59882 3.824118,2.82569 1.657382,1.80874 1.897652,2.4857 1.123513,3.16549 -0.780806,0.68564 -1.47589,0.75717 -2.31599,0.23833 z m 44.076938,-0.0108 c -1.055378,-1.05537 -0.753129,-1.81959 1.604872,-4.05782 2.303616,-2.18661 3.157514,-2.51941 4.019733,-1.56667 0.855792,0.94564 0.550486,1.66615 -1.612638,3.80571 -2.304256,2.27915 -3.162517,2.66823 -4.011967,1.81878 z m -22.365218,-8.81306 c -0.300929,-0.42963 -0.411876,-1.24926 -0.411876,-3.04271 0,-2.71526 0.390532,-3.513 1.719791,-3.513 1.329259,0 1.719792,0.79774 1.719792,3.513 0,2.92971 -0.332066,3.63075 -1.719792,3.63075 -0.626001,0 -1.020162,-0.17721 -1.307915,-0.58804 z m 59.762571,-18.96158 c 0.0799,-0.12928 0.15496,-1.91569 0.16682,-3.96982 0.0198,-3.43504 -0.0309,-3.84931 -0.63182,-5.16192 -1.25272,-2.73628 -3.87859,-4.65103 -7.09391,-5.17276 -2.46427,-0.39986 -99.727902,-0.38037 -101.616575,0.0204 -3.077921,0.65307 -5.330634,2.43163 -6.6607155,5.25876 -0.7421457,1.57746 -0.8179091,1.9991 -0.9154186,5.09452 -0.076647,2.43313 -0.014711,3.4851 0.221996,3.77031 0.2895255,0.34886 7.1828101,0.39559 58.3563331,0.39559 33.538034,0 58.08933,-0.0992 58.17329,-0.23504 z M 18.189703,123.69116 c -4.715761,-2.45726 -2.256943,-9.09149 3.073295,-8.29217 2.080085,0.31193 3.5258,2.05594 3.5258,4.25328 0,1.70673 -0.648769,2.92241 -1.97408,3.6991 -1.665309,0.97593 -3.189306,1.0879 -4.625015,0.33979 z m 2.048262,-2.91421 c 0.742328,-0.74232 -0.01828,-2.59291 -1.065731,-2.59291 -0.730777,0 -1.527186,0.7349 -1.527186,1.40923 0,1.19542 1.772171,2.00443 2.592917,1.18368 z m 10.628301,2.89719 c -1.658318,-0.83776 -2.373302,-2.01329 -2.373302,-3.90203 0,-1.24463 0.134202,-1.69394 0.766784,-2.56719 0.894075,-1.23424 2.390672,-1.9313 4.146502,-1.9313 3.226199,0 5.429684,3.25312 4.146529,6.12175 -0.634468,1.41841 -1.211993,1.94875 -2.690069,2.47024 -1.576589,0.55625 -2.614806,0.50651 -3.996444,-0.19147 z m 1.271992,-2.99156 c 0.696323,-0.48773 0.75991,-1.34092 0.150157,-2.01469 -0.53739,-0.59381 -1.499196,-0.62565 -2.05676,-0.0681 -0.527005,0.52701 -0.528296,1.15792 -0.0039,1.9066 0.48397,0.69097 1.09507,0.74731 1.9105,0.17617 z m 12.595865,3.08069 c -2.934838,-1.33276 -3.609168,-5.09692 -1.27952,-7.14238 3.121449,-2.74066 8.05711,-0.78603 8.05711,3.1908 0,1.7487 -0.721511,2.87932 -2.380419,3.73016 -1.654273,0.84846 -2.880431,0.9102 -4.397171,0.22142 z m 3.28509,-2.98632 c 0.492096,-0.49209 0.375153,-1.66497 -0.219678,-2.20329 -1.204624,-1.09017 -3.073783,0.77899 -1.983613,1.98362 0.538313,0.59483 1.711195,0.71177 2.203291,0.21967 z"
         id="path23" />
    </g>
  </g>
</svg>
